<?xml version="1.0" encoding="UTF-8" standalone="no"?>
<!DOCTYPE svg PUBLIC "-//W3C//DTD SVG 1.1//EN"
 "http://www.w3.org/Graphics/SVG/1.1/DTD/svg11.dtd">
<!-- Generated by graphviz version 14.0.0 (20250921.2048)
 -->
<!-- Title: dependency&#45;cruiser output Pages: 1 -->
<svg width="695pt" height="1820pt"
 viewBox="0.00 0.00 695.00 1820.00" xmlns="http://www.w3.org/2000/svg" xmlns:xlink="http://www.w3.org/1999/xlink">
<g id="graph0" class="graph" transform="scale(1 1) rotate(0) translate(4 1815.88)">
<title>dependency&#45;cruiser output</title>
<polygon fill="white" stroke="none" points="-4,4 -4,-1815.88 690.5,-1815.88 690.5,4 -4,4"/>
<g id="clust1" class="cluster">
<title>cluster_articles</title>
<path fill="#ffffff" stroke="black" stroke-width="2" d="M20.38,-1357.88C20.38,-1357.88 307.88,-1357.88 307.88,-1357.88 313.88,-1357.88 319.88,-1363.88 319.88,-1369.88 319.88,-1369.88 319.88,-1791.88 319.88,-1791.88 319.88,-1797.88 313.88,-1803.88 307.88,-1803.88 307.88,-1803.88 20.38,-1803.88 20.38,-1803.88 14.37,-1803.88 8.38,-1797.88 8.38,-1791.88 8.38,-1791.88 8.38,-1369.88 8.38,-1369.88 8.38,-1363.88 14.38,-1357.88 20.38,-1357.88"/>
<text xml:space="preserve" text-anchor="middle" x="164.12" y="-1791.33" font-family="Helvetica,sans-Serif" font-weight="bold" font-size="9.00">articles</text>
</g>
<g id="clust2" class="cluster">
<title>cluster_articles/entities</title>
<path fill="#ffffff" stroke="black" stroke-width="2" d="M233.38,-1477.88C233.38,-1477.88 299.88,-1477.88 299.88,-1477.88 305.88,-1477.88 311.88,-1483.88 311.88,-1489.88 311.88,-1489.88 311.88,-1517.88 311.88,-1517.88 311.88,-1523.88 305.88,-1529.88 299.88,-1529.88 299.88,-1529.88 233.38,-1529.88 233.38,-1529.88 227.38,-1529.88 221.38,-1523.88 221.38,-1517.88 221.38,-1517.88 221.38,-1489.88 221.38,-1489.88 221.38,-1483.88 227.38,-1477.88 233.38,-1477.88"/>
<text xml:space="preserve" text-anchor="middle" x="266.62" y="-1517.33" font-family="Helvetica,sans-Serif" font-weight="bold" font-size="9.00">entities</text>
</g>
<g id="clust3" class="cluster">
<title>cluster_articles/events</title>
<path fill="#ffffff" stroke="black" stroke-width="2" d="M61.75,-1365.88C61.75,-1365.88 165.75,-1365.88 165.75,-1365.88 171.75,-1365.88 177.75,-1371.88 177.75,-1377.88 177.75,-1377.88 177.75,-1465.88 177.75,-1465.88 177.75,-1471.88 171.75,-1477.88 165.75,-1477.88 165.75,-1477.88 61.75,-1477.88 61.75,-1477.88 55.75,-1477.88 49.75,-1471.88 49.75,-1465.88 49.75,-1465.88 49.75,-1377.88 49.75,-1377.88 49.75,-1371.88 55.75,-1365.88 61.75,-1365.88"/>
<text xml:space="preserve" text-anchor="middle" x="113.75" y="-1465.33" font-family="Helvetica,sans-Serif" font-weight="bold" font-size="9.00">events</text>
</g>
<g id="clust4" class="cluster">
<title>cluster_articles/repositories</title>
<path fill="#ffffff" stroke="black" stroke-width="2" d="M28.38,-1485.88C28.38,-1485.88 199.12,-1485.88 199.12,-1485.88 205.12,-1485.88 211.12,-1491.88 211.12,-1497.88 211.12,-1497.88 211.12,-1585.88 211.12,-1585.88 211.12,-1591.88 205.12,-1597.88 199.12,-1597.88 199.12,-1597.88 28.38,-1597.88 28.38,-1597.88 22.37,-1597.88 16.38,-1591.88 16.38,-1585.88 16.38,-1585.88 16.38,-1497.88 16.38,-1497.88 16.38,-1491.88 22.38,-1485.88 28.38,-1485.88"/>
<text xml:space="preserve" text-anchor="middle" x="113.75" y="-1585.33" font-family="Helvetica,sans-Serif" font-weight="bold" font-size="9.00">repositories</text>
</g>
<g id="clust5" class="cluster">
<title>cluster_articles/services</title>
<path fill="#ffffff" stroke="black" stroke-width="2" d="M57.62,-1605.88C57.62,-1605.88 169.88,-1605.88 169.88,-1605.88 175.88,-1605.88 181.88,-1611.88 181.88,-1617.88 181.88,-1617.88 181.88,-1645.88 181.88,-1645.88 181.88,-1651.88 175.88,-1657.88 169.88,-1657.88 169.88,-1657.88 57.62,-1657.88 57.62,-1657.88 51.62,-1657.88 45.62,-1651.88 45.62,-1645.88 45.62,-1645.88 45.62,-1617.88 45.62,-1617.88 45.62,-1611.88 51.62,-1605.88 57.62,-1605.88"/>
<text xml:space="preserve" text-anchor="middle" x="113.75" y="-1645.33" font-family="Helvetica,sans-Serif" font-weight="bold" font-size="9.00">services</text>
</g>
<g id="clust6" class="cluster">
<title>cluster_articles/types</title>
<path fill="#ffffff" stroke="black" stroke-width="2" d="M75.25,-1665.88C75.25,-1665.88 152.25,-1665.88 152.25,-1665.88 158.25,-1665.88 164.25,-1671.88 164.25,-1677.88 164.25,-1677.88 164.25,-1765.88 164.25,-1765.88 164.25,-1771.88 158.25,-1777.88 152.25,-1777.88 152.25,-1777.88 75.25,-1777.88 75.25,-1777.88 69.25,-1777.88 63.25,-1771.88 63.25,-1765.88 63.25,-1765.88 63.25,-1677.88 63.25,-1677.88 63.25,-1671.88 69.25,-1665.88 75.25,-1665.88"/>
<text xml:space="preserve" text-anchor="middle" x="113.75" y="-1765.33" font-family="Helvetica,sans-Serif" font-weight="bold" font-size="9.00">types</text>
</g>
<g id="clust7" class="cluster">
<title>cluster_books</title>
<path fill="#ffffff" stroke="black" stroke-width="2" d="M22.62,-933.88C22.62,-933.88 307.88,-933.88 307.88,-933.88 313.88,-933.88 319.88,-939.88 319.88,-945.88 319.88,-945.88 319.88,-1337.88 319.88,-1337.88 319.88,-1343.88 313.88,-1349.88 307.88,-1349.88 307.88,-1349.88 22.62,-1349.88 22.62,-1349.88 16.62,-1349.88 10.62,-1343.88 10.62,-1337.88 10.62,-1337.88 10.62,-945.88 10.62,-945.88 10.62,-939.88 16.62,-933.88 22.62,-933.88"/>
<text xml:space="preserve" text-anchor="middle" x="165.25" y="-1337.33" font-family="Helvetica,sans-Serif" font-weight="bold" font-size="9.00">books</text>
</g>
<g id="clust8" class="cluster">
<title>cluster_books/entities</title>
<path fill="#ffffff" stroke="black" stroke-width="2" d="M233.38,-1236.88C233.38,-1236.88 299.88,-1236.88 299.88,-1236.88 305.88,-1236.88 311.88,-1242.88 311.88,-1248.88 311.88,-1248.88 311.88,-1276.88 311.88,-1276.88 311.88,-1282.88 305.88,-1288.88 299.88,-1288.88 299.88,-1288.88 233.38,-1288.88 233.38,-1288.88 227.38,-1288.88 221.38,-1282.88 221.38,-1276.88 221.38,-1276.88 221.38,-1248.88 221.38,-1248.88 221.38,-1242.88 227.38,-1236.88 233.38,-1236.88"/>
<text xml:space="preserve" text-anchor="middle" x="266.62" y="-1276.33" font-family="Helvetica,sans-Serif" font-weight="bold" font-size="9.00">entities</text>
</g>
<g id="clust9" class="cluster">
<title>cluster_books/events</title>
<path fill="#ffffff" stroke="black" stroke-width="2" d="M64,-941.88C64,-941.88 163.5,-941.88 163.5,-941.88 169.5,-941.88 175.5,-947.88 175.5,-953.88 175.5,-953.88 175.5,-1041.88 175.5,-1041.88 175.5,-1047.88 169.5,-1053.88 163.5,-1053.88 163.5,-1053.88 64,-1053.88 64,-1053.88 58,-1053.88 52,-1047.88 52,-1041.88 52,-1041.88 52,-953.88 52,-953.88 52,-947.88 58,-941.88 64,-941.88"/>
<text xml:space="preserve" text-anchor="middle" x="113.75" y="-1041.33" font-family="Helvetica,sans-Serif" font-weight="bold" font-size="9.00">events</text>
</g>
<g id="clust10" class="cluster">
<title>cluster_books/repositories</title>
<path fill="#ffffff" stroke="black" stroke-width="2" d="M30.62,-1061.88C30.62,-1061.88 196.88,-1061.88 196.88,-1061.88 202.88,-1061.88 208.88,-1067.88 208.88,-1073.88 208.88,-1073.88 208.88,-1131.88 208.88,-1131.88 208.88,-1137.88 202.88,-1143.88 196.88,-1143.88 196.88,-1143.88 30.62,-1143.88 30.62,-1143.88 24.63,-1143.88 18.62,-1137.88 18.62,-1131.88 18.62,-1131.88 18.62,-1073.88 18.62,-1073.88 18.62,-1067.88 24.62,-1061.88 30.62,-1061.88"/>
<text xml:space="preserve" text-anchor="middle" x="113.75" y="-1131.33" font-family="Helvetica,sans-Serif" font-weight="bold" font-size="9.00">repositories</text>
</g>
<g id="clust11" class="cluster">
<title>cluster_books/services</title>
<path fill="#ffffff" stroke="black" stroke-width="2" d="M59.88,-1151.88C59.88,-1151.88 167.62,-1151.88 167.62,-1151.88 173.62,-1151.88 179.62,-1157.88 179.62,-1163.88 179.62,-1163.88 179.62,-1191.88 179.62,-1191.88 179.62,-1197.88 173.62,-1203.88 167.62,-1203.88 167.62,-1203.88 59.88,-1203.88 59.88,-1203.88 53.88,-1203.88 47.88,-1197.88 47.88,-1191.88 47.88,-1191.88 47.88,-1163.88 47.88,-1163.88 47.88,-1157.88 53.88,-1151.88 59.88,-1151.88"/>
<text xml:space="preserve" text-anchor="middle" x="113.75" y="-1191.33" font-family="Helvetica,sans-Serif" font-weight="bold" font-size="9.00">services</text>
</g>
<g id="clust12" class="cluster">
<title>cluster_books/types</title>
<path fill="#ffffff" stroke="black" stroke-width="2" d="M75.25,-1211.88C75.25,-1211.88 152.25,-1211.88 152.25,-1211.88 158.25,-1211.88 164.25,-1217.88 164.25,-1223.88 164.25,-1223.88 164.25,-1311.88 164.25,-1311.88 164.25,-1317.88 158.25,-1323.88 152.25,-1323.88 152.25,-1323.88 75.25,-1323.88 75.25,-1323.88 69.25,-1323.88 63.25,-1317.88 63.25,-1311.88 63.25,-1311.88 63.25,-1223.88 63.25,-1223.88 63.25,-1217.88 69.25,-1211.88 75.25,-1211.88"/>
<text xml:space="preserve" text-anchor="middle" x="113.75" y="-1311.33" font-family="Helvetica,sans-Serif" font-weight="bold" font-size="9.00">types</text>
</g>
<g id="clust13" class="cluster">
<title>cluster_common</title>
<path fill="#ffffff" stroke="black" stroke-width="2" d="M340.25,-1073.88C340.25,-1073.88 584.5,-1073.88 584.5,-1073.88 590.5,-1073.88 596.5,-1079.88 596.5,-1085.88 596.5,-1085.88 596.5,-1327.88 596.5,-1327.88 596.5,-1333.88 590.5,-1339.88 584.5,-1339.88 584.5,-1339.88 340.25,-1339.88 340.25,-1339.88 334.25,-1339.88 328.25,-1333.88 328.25,-1327.88 328.25,-1327.88 328.25,-1085.88 328.25,-1085.88 328.25,-1079.88 334.25,-1073.88 340.25,-1073.88"/>
<text xml:space="preserve" text-anchor="middle" x="462.38" y="-1327.33" font-family="Helvetica,sans-Serif" font-weight="bold" font-size="9.00">common</text>
</g>
<g id="clust14" class="cluster">
<title>cluster_common/entities</title>
<path fill="#ffffff" stroke="black" stroke-width="2" d="M365.12,-1201.88C365.12,-1201.88 442.12,-1201.88 442.12,-1201.88 448.12,-1201.88 454.12,-1207.88 454.12,-1213.88 454.12,-1213.88 454.12,-1241.88 454.12,-1241.88 454.12,-1247.88 448.12,-1253.88 442.12,-1253.88 442.12,-1253.88 365.12,-1253.88 365.12,-1253.88 359.12,-1253.88 353.12,-1247.88 353.12,-1241.88 353.12,-1241.88 353.12,-1213.88 353.12,-1213.88 353.12,-1207.88 359.12,-1201.88 365.12,-1201.88"/>
<text xml:space="preserve" text-anchor="middle" x="403.62" y="-1241.33" font-family="Helvetica,sans-Serif" font-weight="bold" font-size="9.00">entities</text>
</g>
<g id="clust15" class="cluster">
<title>cluster_common/events</title>
<path fill="#ffffff" stroke="black" stroke-width="2" d="M348.25,-1081.88C348.25,-1081.88 576.5,-1081.88 576.5,-1081.88 582.5,-1081.88 588.5,-1087.88 588.5,-1093.88 588.5,-1093.88 588.5,-1181.88 588.5,-1181.88 588.5,-1187.88 582.5,-1193.88 576.5,-1193.88 576.5,-1193.88 348.25,-1193.88 348.25,-1193.88 342.25,-1193.88 336.25,-1187.88 336.25,-1181.88 336.25,-1181.88 336.25,-1093.88 336.25,-1093.88 336.25,-1087.88 342.25,-1081.88 348.25,-1081.88"/>
<text xml:space="preserve" text-anchor="middle" x="462.38" y="-1181.33" font-family="Helvetica,sans-Serif" font-weight="bold" font-size="9.00">events</text>
</g>
<g id="clust16" class="cluster">
<title>cluster_common/services</title>
<path fill="#ffffff" stroke="black" stroke-width="2" d="M493.88,-1201.88C493.88,-1201.88 562.62,-1201.88 562.62,-1201.88 568.62,-1201.88 574.62,-1207.88 574.62,-1213.88 574.62,-1213.88 574.62,-1271.88 574.62,-1271.88 574.62,-1277.88 568.62,-1283.88 562.62,-1283.88 562.62,-1283.88 493.88,-1283.88 493.88,-1283.88 487.88,-1283.88 481.88,-1277.88 481.88,-1271.88 481.88,-1271.88 481.88,-1213.88 481.88,-1213.88 481.88,-1207.88 487.88,-1201.88 493.88,-1201.88"/>
<text xml:space="preserve" text-anchor="middle" x="528.25" y="-1271.33" font-family="Helvetica,sans-Serif" font-weight="bold" font-size="9.00">services</text>
</g>
<g id="clust17" class="cluster">
<title>cluster_common/types</title>
<path fill="#ffffff" stroke="black" stroke-width="2" d="M368.88,-1261.88C368.88,-1261.88 438.38,-1261.88 438.38,-1261.88 444.38,-1261.88 450.38,-1267.88 450.38,-1273.88 450.38,-1273.88 450.38,-1301.88 450.38,-1301.88 450.38,-1307.88 444.38,-1313.88 438.38,-1313.88 438.38,-1313.88 368.88,-1313.88 368.88,-1313.88 362.88,-1313.88 356.88,-1307.88 356.88,-1301.88 356.88,-1301.88 356.88,-1273.88 356.88,-1273.88 356.88,-1267.88 362.88,-1261.88 368.88,-1261.88"/>
<text xml:space="preserve" text-anchor="middle" x="403.62" y="-1301.33" font-family="Helvetica,sans-Serif" font-weight="bold" font-size="9.00">types</text>
</g>
<g id="clust18" class="cluster">
<title>cluster_errors</title>
<path fill="#ffffff" stroke="black" stroke-width="2" d="M231.5,-873.88C231.5,-873.88 301.75,-873.88 301.75,-873.88 307.75,-873.88 313.75,-879.88 313.75,-885.88 313.75,-885.88 313.75,-913.88 313.75,-913.88 313.75,-919.88 307.75,-925.88 301.75,-925.88 301.75,-925.88 231.5,-925.88 231.5,-925.88 225.5,-925.88 219.5,-919.88 219.5,-913.88 219.5,-913.88 219.5,-885.88 219.5,-885.88 219.5,-879.88 225.5,-873.88 231.5,-873.88"/>
<text xml:space="preserve" text-anchor="middle" x="266.62" y="-913.33" font-family="Helvetica,sans-Serif" font-weight="bold" font-size="9.00">errors</text>
</g>
<g id="clust19" class="cluster">
<title>cluster_images</title>
<path fill="#ffffff" stroke="black" stroke-width="2" d="M20,-449.88C20,-449.88 308.25,-449.88 308.25,-449.88 314.25,-449.88 320.25,-455.88 320.25,-461.88 320.25,-461.88 320.25,-853.88 320.25,-853.88 320.25,-859.88 314.25,-865.88 308.25,-865.88 308.25,-865.88 20,-865.88 20,-865.88 14,-865.88 8,-859.88 8,-853.88 8,-853.88 8,-461.88 8,-461.88 8,-455.88 14,-449.88 20,-449.88"/>
<text xml:space="preserve" text-anchor="middle" x="164.12" y="-853.33" font-family="Helvetica,sans-Serif" font-weight="bold" font-size="9.00">images</text>
</g>
<g id="clust20" class="cluster">
<title>cluster_images/entities</title>
<path fill="#ffffff" stroke="black" stroke-width="2" d="M233,-739.88C233,-739.88 300.25,-739.88 300.25,-739.88 306.25,-739.88 312.25,-745.88 312.25,-751.88 312.25,-751.88 312.25,-779.88 312.25,-779.88 312.25,-785.88 306.25,-791.88 300.25,-791.88 300.25,-791.88 233,-791.88 233,-791.88 227,-791.88 221,-785.88 221,-779.88 221,-779.88 221,-751.88 221,-751.88 221,-745.88 227,-739.88 233,-739.88"/>
<text xml:space="preserve" text-anchor="middle" x="266.62" y="-779.33" font-family="Helvetica,sans-Serif" font-weight="bold" font-size="9.00">entities</text>
</g>
<g id="clust21" class="cluster">
<title>cluster_images/events</title>
<path fill="#ffffff" stroke="black" stroke-width="2" d="M61.38,-457.88C61.38,-457.88 166.12,-457.88 166.12,-457.88 172.12,-457.88 178.12,-463.88 178.12,-469.88 178.12,-469.88 178.12,-557.88 178.12,-557.88 178.12,-563.88 172.12,-569.88 166.12,-569.88 166.12,-569.88 61.38,-569.88 61.38,-569.88 55.38,-569.88 49.38,-563.88 49.38,-557.88 49.38,-557.88 49.38,-469.88 49.38,-469.88 49.38,-463.88 55.38,-457.88 61.38,-457.88"/>
<text xml:space="preserve" text-anchor="middle" x="113.75" y="-557.33" font-family="Helvetica,sans-Serif" font-weight="bold" font-size="9.00">events</text>
</g>
<g id="clust22" class="cluster">
<title>cluster_images/repositories</title>
<path fill="#ffffff" stroke="black" stroke-width="2" d="M28,-577.88C28,-577.88 199.5,-577.88 199.5,-577.88 205.5,-577.88 211.5,-583.88 211.5,-589.88 211.5,-589.88 211.5,-647.88 211.5,-647.88 211.5,-653.88 205.5,-659.88 199.5,-659.88 199.5,-659.88 28,-659.88 28,-659.88 22,-659.88 16,-653.88 16,-647.88 16,-647.88 16,-589.88 16,-589.88 16,-583.88 22,-577.88 28,-577.88"/>
<text xml:space="preserve" text-anchor="middle" x="113.75" y="-647.33" font-family="Helvetica,sans-Serif" font-weight="bold" font-size="9.00">repositories</text>
</g>
<g id="clust23" class="cluster">
<title>cluster_images/services</title>
<path fill="#ffffff" stroke="black" stroke-width="2" d="M57.25,-667.88C57.25,-667.88 170.25,-667.88 170.25,-667.88 176.25,-667.88 182.25,-673.88 182.25,-679.88 182.25,-679.88 182.25,-707.88 182.25,-707.88 182.25,-713.88 176.25,-719.88 170.25,-719.88 170.25,-719.88 57.25,-719.88 57.25,-719.88 51.25,-719.88 45.25,-713.88 45.25,-707.88 45.25,-707.88 45.25,-679.88 45.25,-679.88 45.25,-673.88 51.25,-667.88 57.25,-667.88"/>
<text xml:space="preserve" text-anchor="middle" x="113.75" y="-707.33" font-family="Helvetica,sans-Serif" font-weight="bold" font-size="9.00">services</text>
</g>
<g id="clust24" class="cluster">
<title>cluster_images/types</title>
<path fill="#ffffff" stroke="black" stroke-width="2" d="M75.25,-727.88C75.25,-727.88 152.25,-727.88 152.25,-727.88 158.25,-727.88 164.25,-733.88 164.25,-739.88 164.25,-739.88 164.25,-827.88 164.25,-827.88 164.25,-833.88 158.25,-839.88 152.25,-839.88 152.25,-839.88 75.25,-839.88 75.25,-839.88 69.25,-839.88 63.25,-833.88 63.25,-827.88 63.25,-827.88 63.25,-739.88 63.25,-739.88 63.25,-733.88 69.25,-727.88 75.25,-727.88"/>
<text xml:space="preserve" text-anchor="middle" x="113.75" y="-827.33" font-family="Helvetica,sans-Serif" font-weight="bold" font-size="9.00">types</text>
</g>
<g id="clust25" class="cluster">
<title>cluster_node_modules</title>
<path fill="#ffffff" stroke="black" stroke-width="2" d="M616.5,-976.88C616.5,-976.88 671.5,-976.88 671.5,-976.88 677.5,-976.88 683.5,-982.88 683.5,-988.88 683.5,-988.88 683.5,-1016.88 683.5,-1016.88 683.5,-1022.88 677.5,-1028.88 671.5,-1028.88 671.5,-1028.88 616.5,-1028.88 616.5,-1028.88 610.5,-1028.88 604.5,-1022.88 604.5,-1016.88 604.5,-1016.88 604.5,-988.88 604.5,-988.88 604.5,-982.88 610.5,-976.88 616.5,-976.88"/>
<text xml:space="preserve" text-anchor="middle" x="644" y="-1016.33" font-family="Helvetica,sans-Serif" font-weight="bold" font-size="9.00">node_modules</text>
</g>
<g id="clust26" class="cluster">
<title>cluster_notes</title>
<path fill="#ffffff" stroke="black" stroke-width="2" d="M23.75,-25.88C23.75,-25.88 304.5,-25.88 304.5,-25.88 310.5,-25.88 316.5,-31.88 316.5,-37.88 316.5,-37.88 316.5,-429.88 316.5,-429.88 316.5,-435.88 310.5,-441.88 304.5,-441.88 304.5,-441.88 23.75,-441.88 23.75,-441.88 17.75,-441.88 11.75,-435.88 11.75,-429.88 11.75,-429.88 11.75,-37.88 11.75,-37.88 11.75,-31.87 17.75,-25.88 23.75,-25.88"/>
<text xml:space="preserve" text-anchor="middle" x="164.12" y="-429.32" font-family="Helvetica,sans-Serif" font-weight="bold" font-size="9.00">notes</text>
</g>
<g id="clust27" class="cluster">
<title>cluster_notes/entities</title>
<path fill="#ffffff" stroke="black" stroke-width="2" d="M236.75,-341.88C236.75,-341.88 296.5,-341.88 296.5,-341.88 302.5,-341.88 308.5,-347.88 308.5,-353.88 308.5,-353.88 308.5,-381.88 308.5,-381.88 308.5,-387.88 302.5,-393.88 296.5,-393.88 296.5,-393.88 236.75,-393.88 236.75,-393.88 230.75,-393.88 224.75,-387.88 224.75,-381.88 224.75,-381.88 224.75,-353.88 224.75,-353.88 224.75,-347.88 230.75,-341.88 236.75,-341.88"/>
<text xml:space="preserve" text-anchor="middle" x="266.62" y="-381.32" font-family="Helvetica,sans-Serif" font-weight="bold" font-size="9.00">entities</text>
</g>
<g id="clust28" class="cluster">
<title>cluster_notes/events</title>
<path fill="#ffffff" stroke="black" stroke-width="2" d="M65.12,-33.88C65.12,-33.88 162.38,-33.88 162.38,-33.88 168.38,-33.88 174.38,-39.88 174.38,-45.88 174.38,-45.88 174.38,-133.88 174.38,-133.88 174.38,-139.88 168.38,-145.88 162.38,-145.88 162.38,-145.88 65.12,-145.88 65.12,-145.88 59.13,-145.88 53.12,-139.88 53.12,-133.88 53.12,-133.88 53.12,-45.87 53.12,-45.87 53.12,-39.88 59.12,-33.88 65.12,-33.88"/>
<text xml:space="preserve" text-anchor="middle" x="113.75" y="-133.32" font-family="Helvetica,sans-Serif" font-weight="bold" font-size="9.00">events</text>
</g>
<g id="clust29" class="cluster">
<title>cluster_notes/repositories</title>
<path fill="#ffffff" stroke="black" stroke-width="2" d="M31.75,-153.88C31.75,-153.88 195.75,-153.88 195.75,-153.88 201.75,-153.88 207.75,-159.88 207.75,-165.88 207.75,-165.88 207.75,-223.88 207.75,-223.88 207.75,-229.88 201.75,-235.88 195.75,-235.88 195.75,-235.88 31.75,-235.88 31.75,-235.88 25.75,-235.88 19.75,-229.88 19.75,-223.88 19.75,-223.88 19.75,-165.88 19.75,-165.88 19.75,-159.88 25.75,-153.88 31.75,-153.88"/>
<text xml:space="preserve" text-anchor="middle" x="113.75" y="-223.32" font-family="Helvetica,sans-Serif" font-weight="bold" font-size="9.00">repositories</text>
</g>
<g id="clust30" class="cluster">
<title>cluster_notes/services</title>
<path fill="#ffffff" stroke="black" stroke-width="2" d="M61,-243.88C61,-243.88 166.5,-243.88 166.5,-243.88 172.5,-243.88 178.5,-249.88 178.5,-255.88 178.5,-255.88 178.5,-283.88 178.5,-283.88 178.5,-289.88 172.5,-295.88 166.5,-295.88 166.5,-295.88 61,-295.88 61,-295.88 55,-295.88 49,-289.88 49,-283.88 49,-283.88 49,-255.88 49,-255.88 49,-249.88 55,-243.88 61,-243.88"/>
<text xml:space="preserve" text-anchor="middle" x="113.75" y="-283.32" font-family="Helvetica,sans-Serif" font-weight="bold" font-size="9.00">services</text>
</g>
<g id="clust31" class="cluster">
<title>cluster_notes/types</title>
<path fill="#ffffff" stroke="black" stroke-width="2" d="M75.25,-303.88C75.25,-303.88 152.25,-303.88 152.25,-303.88 158.25,-303.88 164.25,-309.88 164.25,-315.88 164.25,-315.88 164.25,-403.88 164.25,-403.88 164.25,-409.88 158.25,-415.88 152.25,-415.88 152.25,-415.88 75.25,-415.88 75.25,-415.88 69.25,-415.88 63.25,-409.88 63.25,-403.88 63.25,-403.88 63.25,-315.88 63.25,-315.88 63.25,-309.88 69.25,-303.88 75.25,-303.88"/>
<text xml:space="preserve" text-anchor="middle" x="113.75" y="-403.32" font-family="Helvetica,sans-Serif" font-weight="bold" font-size="9.00">types</text>
</g>
<!-- .dependency&#45;cruiser.cjs -->
<g id="node1" class="node">
<title>.dependency&#45;cruiser.cjs</title>
<g id="a_node1"><a xlink:href=".dependency-cruiser.cjs" xlink:title=".dependency&#45;cruiser.cjs">
<path fill="#ccffcc" stroke="black" d="M164.58,-17.75C164.58,-17.75 62.92,-17.75 62.92,-17.75 59.96,-17.75 57,-14.79 57,-11.83 57,-11.83 57,-5.92 57,-5.92 57,-2.96 59.96,0 62.92,0 62.92,0 164.58,0 164.58,0 167.54,0 170.5,-2.96 170.5,-5.92 170.5,-5.92 170.5,-11.83 170.5,-11.83 170.5,-14.79 167.54,-17.75 164.58,-17.75"/>
<text xml:space="preserve" text-anchor="start" x="65" y="-5.2" font-family="Helvetica,sans-Serif" font-size="9.00">.dependency&#45;cruiser.cjs</text>
</a>
</g>
</g>
<!-- articles/entities/article&#45;entity.ts -->
<g id="node2" class="node">
<title>articles/entities/article&#45;entity.ts</title>
<g id="a_node2"><a xlink:href="articles/entities/article-entity.ts" xlink:title="article&#45;entity.ts">
<path fill="#ddfeff" stroke="black" d="M297.96,-1503.75C297.96,-1503.75 235.29,-1503.75 235.29,-1503.75 232.33,-1503.75 229.38,-1500.79 229.38,-1497.83 229.38,-1497.83 229.38,-1491.92 229.38,-1491.92 229.38,-1488.96 232.33,-1486 235.29,-1486 235.29,-1486 297.96,-1486 297.96,-1486 300.92,-1486 303.88,-1488.96 303.88,-1491.92 303.88,-1491.92 303.88,-1497.83 303.88,-1497.83 303.88,-1500.79 300.92,-1503.75 297.96,-1503.75"/>
<text xml:space="preserve" text-anchor="start" x="237.38" y="-1491.2" font-family="Helvetica,sans-Serif" font-size="9.00">article&#45;entity.ts</text>
</a>
</g>
</g>
<!-- common/entities/common&#45;entity.ts -->
<g id="node3" class="node">
<title>common/entities/common&#45;entity.ts</title>
<g id="a_node3"><a xlink:href="common/entities/common-entity.ts" xlink:title="common&#45;entity.ts">
<path fill="#ddfeff" stroke="black" d="M440.21,-1227.75C440.21,-1227.75 367.04,-1227.75 367.04,-1227.75 364.08,-1227.75 361.12,-1224.79 361.12,-1221.83 361.12,-1221.83 361.12,-1215.92 361.12,-1215.92 361.12,-1212.96 364.08,-1210 367.04,-1210 367.04,-1210 440.21,-1210 440.21,-1210 443.17,-1210 446.12,-1212.96 446.12,-1215.92 446.12,-1215.92 446.12,-1221.83 446.12,-1221.83 446.12,-1224.79 443.17,-1227.75 440.21,-1227.75"/>
<text xml:space="preserve" text-anchor="start" x="369.12" y="-1215.2" font-family="Helvetica,sans-Serif" font-size="9.00">common&#45;entity.ts</text>
</a>
</g>
</g>
<!-- articles/entities/article&#45;entity.ts&#45;&gt;common/entities/common&#45;entity.ts -->
<g id="edge1" class="edge">
<title>articles/entities/article&#45;entity.ts&#45;&gt;common/entities/common&#45;entity.ts</title>
<path fill="none" stroke="#000000" stroke-width="2" stroke-opacity="0.200000" d="M270.09,-1485.58C277.71,-1456.83 301.47,-1366.74 320.25,-1291.88 323.92,-1277.24 319.03,-1270.82 328.25,-1258.88 337.53,-1246.86 351.46,-1238.03 364.77,-1231.76"/>
<polygon fill="#000000" fill-opacity="0.200000" stroke="#000000" stroke-width="2" stroke-opacity="0.200000" points="365.5,-1233.73 370.16,-1229.4 363.82,-1229.88 365.5,-1233.73"/>
</g>
<!-- common/services/entity&#45;factory.ts -->
<g id="node4" class="node">
<title>common/services/entity&#45;factory.ts</title>
<g id="a_node4"><a xlink:href="common/services/entity-factory.ts" xlink:title="entity&#45;factory.ts">
<path fill="#ddfeff" stroke="black" d="M560.71,-1257.75C560.71,-1257.75 495.79,-1257.75 495.79,-1257.75 492.83,-1257.75 489.88,-1254.79 489.88,-1251.83 489.88,-1251.83 489.88,-1245.92 489.88,-1245.92 489.88,-1242.96 492.83,-1240 495.79,-1240 495.79,-1240 560.71,-1240 560.71,-1240 563.67,-1240 566.62,-1242.96 566.62,-1245.92 566.62,-1245.92 566.62,-1251.83 566.62,-1251.83 566.62,-1254.79 563.67,-1257.75 560.71,-1257.75"/>
<text xml:space="preserve" text-anchor="start" x="497.88" y="-1245.2" font-family="Helvetica,sans-Serif" font-size="9.00">entity&#45;factory.ts</text>
</a>
</g>
</g>
<!-- articles/entities/article&#45;entity.ts&#45;&gt;common/services/entity&#45;factory.ts -->
<g id="edge2" class="edge">
<title>articles/entities/article&#45;entity.ts&#45;&gt;common/services/entity&#45;factory.ts</title>
<path fill="none" stroke="#000000" stroke-width="2" stroke-opacity="0.200000" d="M304.26,-1494.4C347.68,-1491.87 419.59,-1481.16 463,-1439.88 513.03,-1392.29 524.11,-1304.55 526.56,-1266.86"/>
<polygon fill="#000000" fill-opacity="0.200000" stroke="#000000" stroke-width="2" stroke-opacity="0.200000" points="528.64,-1267.14 526.87,-1261.04 524.45,-1266.92 528.64,-1267.14"/>
</g>
<!-- node_modules/.pnpm -->
<g id="node5" class="node">
<title>node_modules/.pnpm</title>
<g id="a_node5"><a xlink:href="https://www.npmjs.com/package/.pnpm" xlink:title=".pnpm">
<polygon fill="#c40b0a" fill-opacity="0.101961" stroke="black" points="670.5,-1002.75 618.47,-1002.75 616.5,-1000.78 616.5,-985 668.53,-985 670.5,-986.97 670.5,-1002.75"/>
<polyline fill="none" stroke="black" points="668.53,-1000.78 616.5,-1000.78"/>
<polyline fill="none" stroke="black" points="668.53,-1000.78 668.53,-985"/>
<polyline fill="none" stroke="black" points="668.53,-1000.78 670.5,-1002.75"/>
<text xml:space="preserve" text-anchor="start" x="630.75" y="-990.2" font-family="Helvetica,sans-Serif" font-size="9.00" fill="#c40b0a">.pnpm</text>
</a>
</g>
</g>
<!-- articles/entities/article&#45;entity.ts&#45;&gt;node_modules/.pnpm -->
<g id="edge3" class="edge">
<title>articles/entities/article&#45;entity.ts&#45;&gt;node_modules/.pnpm</title>
<path fill="none" stroke="#000000" stroke-opacity="0.200000" d="M304.33,-1498.11C344.98,-1500.18 411.56,-1499.01 463,-1475.88 536.85,-1442.65 559.46,-1423.89 596.5,-1351.88 627.84,-1290.94 639.2,-1072.88 641.85,-1010.6"/>
<polygon fill="#000000" fill-opacity="0.200000" stroke="#000000" stroke-opacity="0.200000" points="643.94,-1010.77 642.09,-1004.69 639.75,-1010.6 643.94,-1010.77"/>
</g>
<!-- common/entities/common&#45;entity.ts&#45;&gt;node_modules/.pnpm -->
<g id="edge18" class="edge">
<title>common/entities/common&#45;entity.ts&#45;&gt;node_modules/.pnpm</title>
<path fill="none" stroke="#000000" stroke-opacity="0.200000" d="M423.15,-1228.14C435.71,-1235.17 451.97,-1245.84 463,-1258.88 471.86,-1269.35 464.43,-1279.49 476,-1286.88 521.14,-1315.69 555.8,-1321.68 596.5,-1286.88 638.74,-1250.75 642.45,-1067.19 642.58,-1010.54"/>
<polygon fill="#000000" fill-opacity="0.200000" stroke="#000000" stroke-opacity="0.200000" points="644.68,-1010.65 642.57,-1004.65 640.48,-1010.66 644.68,-1010.65"/>
</g>
<!-- common/services/id&#45;generator.ts -->
<g id="node28" class="node">
<title>common/services/id&#45;generator.ts</title>
<g id="a_node28"><a xlink:href="common/services/id-generator.ts" xlink:title="id&#45;generator.ts">
<path fill="#ddfeff" stroke="black" d="M559.96,-1227.75C559.96,-1227.75 496.54,-1227.75 496.54,-1227.75 493.58,-1227.75 490.62,-1224.79 490.62,-1221.83 490.62,-1221.83 490.62,-1215.92 490.62,-1215.92 490.62,-1212.96 493.58,-1210 496.54,-1210 496.54,-1210 559.96,-1210 559.96,-1210 562.92,-1210 565.88,-1212.96 565.88,-1215.92 565.88,-1215.92 565.88,-1221.83 565.88,-1221.83 565.88,-1224.79 562.92,-1227.75 559.96,-1227.75"/>
<text xml:space="preserve" text-anchor="start" x="498.62" y="-1215.2" font-family="Helvetica,sans-Serif" font-size="9.00">id&#45;generator.ts</text>
</a>
</g>
</g>
<!-- common/entities/common&#45;entity.ts&#45;&gt;common/services/id&#45;generator.ts -->
<g id="edge17" class="edge">
<title>common/entities/common&#45;entity.ts&#45;&gt;common/services/id&#45;generator.ts</title>
<path fill="none" stroke="#000000" stroke-width="2" stroke-opacity="0.200000" d="M446.48,-1218.88C457.76,-1218.88 470.02,-1218.88 481.5,-1218.88"/>
<polygon fill="#000000" fill-opacity="0.200000" stroke="#000000" stroke-width="2" stroke-opacity="0.200000" points="481.47,-1220.98 487.47,-1218.88 481.47,-1216.78 481.47,-1220.98"/>
</g>
<!-- articles/events/article&#45;created&#45;event.ts -->
<g id="node6" class="node">
<title>articles/events/article&#45;created&#45;event.ts</title>
<g id="a_node6"><a xlink:href="articles/events/article-created-event.ts" xlink:title="article&#45;created&#45;event.ts">
<path fill="#ddfeff" stroke="black" d="M162.33,-1391.75C162.33,-1391.75 65.17,-1391.75 65.17,-1391.75 62.21,-1391.75 59.25,-1388.79 59.25,-1385.83 59.25,-1385.83 59.25,-1379.92 59.25,-1379.92 59.25,-1376.96 62.21,-1374 65.17,-1374 65.17,-1374 162.33,-1374 162.33,-1374 165.29,-1374 168.25,-1376.96 168.25,-1379.92 168.25,-1379.92 168.25,-1385.83 168.25,-1385.83 168.25,-1388.79 165.29,-1391.75 162.33,-1391.75"/>
<text xml:space="preserve" text-anchor="start" x="67.25" y="-1379.2" font-family="Helvetica,sans-Serif" font-size="9.00">article&#45;created&#45;event.ts</text>
</a>
</g>
</g>
<!-- common/events/base&#45;domain&#45;event.ts -->
<g id="node7" class="node">
<title>common/events/base&#45;domain&#45;event.ts</title>
<g id="a_node7"><a xlink:href="common/events/base-domain-event.ts" xlink:title="base&#45;domain&#45;event.ts">
<path fill="#ddfeff" stroke="black" d="M574.58,-1107.75C574.58,-1107.75 481.92,-1107.75 481.92,-1107.75 478.96,-1107.75 476,-1104.79 476,-1101.83 476,-1101.83 476,-1095.92 476,-1095.92 476,-1092.96 478.96,-1090 481.92,-1090 481.92,-1090 574.58,-1090 574.58,-1090 577.54,-1090 580.5,-1092.96 580.5,-1095.92 580.5,-1095.92 580.5,-1101.83 580.5,-1101.83 580.5,-1104.79 577.54,-1107.75 574.58,-1107.75"/>
<text xml:space="preserve" text-anchor="start" x="484" y="-1095.2" font-family="Helvetica,sans-Serif" font-size="9.00">base&#45;domain&#45;event.ts</text>
</a>
</g>
</g>
<!-- articles/events/article&#45;created&#45;event.ts&#45;&gt;common/events/base&#45;domain&#45;event.ts -->
<g id="edge4" class="edge">
<title>articles/events/article&#45;created&#45;event.ts&#45;&gt;common/events/base&#45;domain&#45;event.ts</title>
<path fill="none" stroke="#000000" stroke-width="2" stroke-opacity="0.200000" d="M168.49,-1380.28C256.11,-1374.86 423.92,-1359.11 463,-1316.88 480.92,-1297.51 468.41,-1224.14 476,-1198.88 485.33,-1167.79 504.18,-1134.87 516.24,-1115.63"/>
<polygon fill="#000000" fill-opacity="0.200000" stroke="#000000" stroke-width="2" stroke-opacity="0.200000" points="518,-1116.78 519.46,-1110.59 514.46,-1114.52 518,-1116.78"/>
</g>
<!-- articles/events/article&#45;deleted&#45;event.ts -->
<g id="node8" class="node">
<title>articles/events/article&#45;deleted&#45;event.ts</title>
<g id="a_node8"><a xlink:href="articles/events/article-deleted-event.ts" xlink:title="article&#45;deleted&#45;event.ts">
<path fill="#ddfeff" stroke="black" d="M162.33,-1451.75C162.33,-1451.75 65.17,-1451.75 65.17,-1451.75 62.21,-1451.75 59.25,-1448.79 59.25,-1445.83 59.25,-1445.83 59.25,-1439.92 59.25,-1439.92 59.25,-1436.96 62.21,-1434 65.17,-1434 65.17,-1434 162.33,-1434 162.33,-1434 165.29,-1434 168.25,-1436.96 168.25,-1439.92 168.25,-1439.92 168.25,-1445.83 168.25,-1445.83 168.25,-1448.79 165.29,-1451.75 162.33,-1451.75"/>
<text xml:space="preserve" text-anchor="start" x="67.25" y="-1439.2" font-family="Helvetica,sans-Serif" font-size="9.00">article&#45;deleted&#45;event.ts</text>
</a>
</g>
</g>
<!-- articles/events/article&#45;deleted&#45;event.ts&#45;&gt;common/events/base&#45;domain&#45;event.ts -->
<g id="edge5" class="edge">
<title>articles/events/article&#45;deleted&#45;event.ts&#45;&gt;common/events/base&#45;domain&#45;event.ts</title>
<path fill="none" stroke="#000000" stroke-width="2" stroke-opacity="0.200000" d="M168.44,-1441.58C256.41,-1438.23 425.25,-1426.17 463,-1382.88 476.47,-1367.43 470.49,-1218.62 476,-1198.88 484.76,-1167.47 503.93,-1134.45 516.18,-1115.31"/>
<polygon fill="#000000" fill-opacity="0.200000" stroke="#000000" stroke-width="2" stroke-opacity="0.200000" points="517.77,-1116.71 519.3,-1110.53 514.26,-1114.41 517.77,-1116.71"/>
</g>
<!-- articles/events/article&#45;updated&#45;event.ts -->
<g id="node9" class="node">
<title>articles/events/article&#45;updated&#45;event.ts</title>
<g id="a_node9"><a xlink:href="articles/events/article-updated-event.ts" xlink:title="article&#45;updated&#45;event.ts">
<path fill="#ddfeff" stroke="black" d="M163.83,-1421.75C163.83,-1421.75 63.67,-1421.75 63.67,-1421.75 60.71,-1421.75 57.75,-1418.79 57.75,-1415.83 57.75,-1415.83 57.75,-1409.92 57.75,-1409.92 57.75,-1406.96 60.71,-1404 63.67,-1404 63.67,-1404 163.83,-1404 163.83,-1404 166.79,-1404 169.75,-1406.96 169.75,-1409.92 169.75,-1409.92 169.75,-1415.83 169.75,-1415.83 169.75,-1418.79 166.79,-1421.75 163.83,-1421.75"/>
<text xml:space="preserve" text-anchor="start" x="65.75" y="-1409.2" font-family="Helvetica,sans-Serif" font-size="9.00">article&#45;updated&#45;event.ts</text>
</a>
</g>
</g>
<!-- articles/events/article&#45;updated&#45;event.ts&#45;&gt;common/events/base&#45;domain&#45;event.ts -->
<g id="edge6" class="edge">
<title>articles/events/article&#45;updated&#45;event.ts&#45;&gt;common/events/base&#45;domain&#45;event.ts</title>
<path fill="none" stroke="#000000" stroke-width="2" stroke-opacity="0.200000" d="M170.13,-1410.92C258.44,-1406.53 425.12,-1392.65 463,-1349.88 485.33,-1324.66 466.7,-1231.25 476,-1198.88 484.96,-1167.68 503.92,-1134.79 516.1,-1115.59"/>
<polygon fill="#000000" fill-opacity="0.200000" stroke="#000000" stroke-width="2" stroke-opacity="0.200000" points="517.86,-1116.73 519.36,-1110.56 514.34,-1114.45 517.86,-1116.73"/>
</g>
<!-- articles/repositories/articles&#45;command&#45;repository.interface.ts -->
<g id="node10" class="node">
<title>articles/repositories/articles&#45;command&#45;repository.interface.ts</title>
<g id="a_node10"><a xlink:href="articles/repositories/articles-command-repository.interface.ts" xlink:title="no&#45;orphans">
<path fill="#ccffcc" stroke="orange" d="M197.21,-1511.75C197.21,-1511.75 30.29,-1511.75 30.29,-1511.75 27.33,-1511.75 24.38,-1508.79 24.38,-1505.83 24.38,-1505.83 24.38,-1499.92 24.38,-1499.92 24.38,-1496.96 27.33,-1494 30.29,-1494 30.29,-1494 197.21,-1494 197.21,-1494 200.17,-1494 203.12,-1496.96 203.12,-1499.92 203.12,-1499.92 203.12,-1505.83 203.12,-1505.83 203.12,-1508.79 200.17,-1511.75 197.21,-1511.75"/>
<text xml:space="preserve" text-anchor="start" x="32.38" y="-1499.2" font-family="Helvetica,sans-Serif" font-size="9.00" fill="orange">articles&#45;command&#45;repository.interface.ts</text>
</a>
</g>
</g>
<!-- articles/repositories/articles&#45;query&#45;repository.interface.ts -->
<g id="node11" class="node">
<title>articles/repositories/articles&#45;query&#45;repository.interface.ts</title>
<g id="a_node11"><a xlink:href="articles/repositories/articles-query-repository.interface.ts" xlink:title="no&#45;orphans">
<path fill="#ccffcc" stroke="orange" d="M188.58,-1541.75C188.58,-1541.75 38.92,-1541.75 38.92,-1541.75 35.96,-1541.75 33,-1538.79 33,-1535.83 33,-1535.83 33,-1529.92 33,-1529.92 33,-1526.96 35.96,-1524 38.92,-1524 38.92,-1524 188.58,-1524 188.58,-1524 191.54,-1524 194.5,-1526.96 194.5,-1529.92 194.5,-1529.92 194.5,-1535.83 194.5,-1535.83 194.5,-1538.79 191.54,-1541.75 188.58,-1541.75"/>
<text xml:space="preserve" text-anchor="start" x="41" y="-1529.2" font-family="Helvetica,sans-Serif" font-size="9.00" fill="orange">articles&#45;query&#45;repository.interface.ts</text>
</a>
</g>
</g>
<!-- articles/repositories/category&#45;query&#45;repository.interface.ts -->
<g id="node12" class="node">
<title>articles/repositories/category&#45;query&#45;repository.interface.ts</title>
<g id="a_node12"><a xlink:href="articles/repositories/category-query-repository.interface.ts" xlink:title="no&#45;orphans">
<path fill="#ccffcc" stroke="orange" d="M191.58,-1571.75C191.58,-1571.75 35.92,-1571.75 35.92,-1571.75 32.96,-1571.75 30,-1568.79 30,-1565.83 30,-1565.83 30,-1559.92 30,-1559.92 30,-1556.96 32.96,-1554 35.92,-1554 35.92,-1554 191.58,-1554 191.58,-1554 194.54,-1554 197.5,-1556.96 197.5,-1559.92 197.5,-1559.92 197.5,-1565.83 197.5,-1565.83 197.5,-1568.79 194.54,-1571.75 191.58,-1571.75"/>
<text xml:space="preserve" text-anchor="start" x="38" y="-1559.2" font-family="Helvetica,sans-Serif" font-size="9.00" fill="orange">category&#45;query&#45;repository.interface.ts</text>
</a>
</g>
</g>
<!-- articles/services/articles&#45;domain&#45;service.ts -->
<g id="node13" class="node">
<title>articles/services/articles&#45;domain&#45;service.ts</title>
<g id="a_node13"><a xlink:href="articles/services/articles-domain-service.ts" xlink:title="articles&#45;domain&#45;service.ts">
<path fill="#ddfeff" stroke="black" d="M167.96,-1631.75C167.96,-1631.75 59.54,-1631.75 59.54,-1631.75 56.58,-1631.75 53.62,-1628.79 53.62,-1625.83 53.62,-1625.83 53.62,-1619.92 53.62,-1619.92 53.62,-1616.96 56.58,-1614 59.54,-1614 59.54,-1614 167.96,-1614 167.96,-1614 170.92,-1614 173.88,-1616.96 173.88,-1619.92 173.88,-1619.92 173.88,-1625.83 173.88,-1625.83 173.88,-1628.79 170.92,-1631.75 167.96,-1631.75"/>
<text xml:space="preserve" text-anchor="start" x="61.62" y="-1619.2" font-family="Helvetica,sans-Serif" font-size="9.00">articles&#45;domain&#45;service.ts</text>
</a>
</g>
</g>
<!-- articles/services/articles&#45;domain&#45;service.ts&#45;&gt;articles/entities/article&#45;entity.ts -->
<g id="edge8" class="edge">
<title>articles/services/articles&#45;domain&#45;service.ts&#45;&gt;articles/entities/article&#45;entity.ts</title>
<path fill="none" stroke="#000000" stroke-width="2" stroke-opacity="0.200000" d="M174.14,-1617.85C187.43,-1614.52 200.76,-1609.23 211.5,-1600.88 240.3,-1578.47 255.12,-1536.55 261.54,-1512.69"/>
<polygon fill="#000000" fill-opacity="0.200000" stroke="#000000" stroke-width="2" stroke-opacity="0.200000" points="263.5,-1513.5 262.93,-1507.17 259.43,-1512.47 263.5,-1513.5"/>
</g>
<!-- errors/error&#45;classes.ts -->
<g id="node14" class="node">
<title>errors/error&#45;classes.ts</title>
<g id="a_node14"><a xlink:href="errors/error-classes.ts" xlink:title="error&#45;classes.ts">
<path fill="#ddfeff" stroke="black" d="M299.83,-899.75C299.83,-899.75 233.42,-899.75 233.42,-899.75 230.46,-899.75 227.5,-896.79 227.5,-893.83 227.5,-893.83 227.5,-887.92 227.5,-887.92 227.5,-884.96 230.46,-882 233.42,-882 233.42,-882 299.83,-882 299.83,-882 302.79,-882 305.75,-884.96 305.75,-887.92 305.75,-887.92 305.75,-893.83 305.75,-893.83 305.75,-896.79 302.79,-899.75 299.83,-899.75"/>
<text xml:space="preserve" text-anchor="start" x="235.5" y="-887.2" font-family="Helvetica,sans-Serif" font-size="9.00">error&#45;classes.ts</text>
</a>
</g>
</g>
<!-- articles/services/articles&#45;domain&#45;service.ts&#45;&gt;errors/error&#45;classes.ts -->
<g id="edge7" class="edge">
<title>articles/services/articles&#45;domain&#45;service.ts&#45;&gt;errors/error&#45;classes.ts</title>
<path fill="none" stroke="#000000" stroke-width="2" stroke-opacity="0.200000" d="M174.19,-1621.72C188.47,-1618.45 202.24,-1612.22 211.5,-1600.88 217.95,-1592.98 218.71,-1244.04 219.5,-1233.88 229.23,-1108.92 253.73,-959.87 262.47,-908.95"/>
<polygon fill="#000000" fill-opacity="0.200000" stroke="#000000" stroke-width="2" stroke-opacity="0.200000" points="264.53,-909.36 263.48,-903.09 260.39,-908.65 264.53,-909.36"/>
</g>
<!-- articles/types/cache&#45;strategy.ts -->
<g id="node15" class="node">
<title>articles/types/cache&#45;strategy.ts</title>
<g id="a_node15"><a xlink:href="articles/types/cache-strategy.ts" xlink:title="no&#45;orphans">
<path fill="#ccffcc" stroke="orange" d="M150.33,-1691.75C150.33,-1691.75 77.17,-1691.75 77.17,-1691.75 74.21,-1691.75 71.25,-1688.79 71.25,-1685.83 71.25,-1685.83 71.25,-1679.92 71.25,-1679.92 71.25,-1676.96 74.21,-1674 77.17,-1674 77.17,-1674 150.33,-1674 150.33,-1674 153.29,-1674 156.25,-1676.96 156.25,-1679.92 156.25,-1679.92 156.25,-1685.83 156.25,-1685.83 156.25,-1688.79 153.29,-1691.75 150.33,-1691.75"/>
<text xml:space="preserve" text-anchor="start" x="79.25" y="-1679.2" font-family="Helvetica,sans-Serif" font-size="9.00" fill="orange">cache&#45;strategy.ts</text>
</a>
</g>
</g>
<!-- articles/types/query&#45;params.ts -->
<g id="node16" class="node">
<title>articles/types/query&#45;params.ts</title>
<g id="a_node16"><a xlink:href="articles/types/query-params.ts" xlink:title="no&#45;orphans">
<path fill="#ccffcc" stroke="orange" d="M148.83,-1721.75C148.83,-1721.75 78.67,-1721.75 78.67,-1721.75 75.71,-1721.75 72.75,-1718.79 72.75,-1715.83 72.75,-1715.83 72.75,-1709.92 72.75,-1709.92 72.75,-1706.96 75.71,-1704 78.67,-1704 78.67,-1704 148.83,-1704 148.83,-1704 151.79,-1704 154.75,-1706.96 154.75,-1709.92 154.75,-1709.92 154.75,-1715.83 154.75,-1715.83 154.75,-1718.79 151.79,-1721.75 148.83,-1721.75"/>
<text xml:space="preserve" text-anchor="start" x="80.75" y="-1709.2" font-family="Helvetica,sans-Serif" font-size="9.00" fill="orange">query&#45;params.ts</text>
</a>
</g>
</g>
<!-- articles/types/sort&#45;order.ts -->
<g id="node17" class="node">
<title>articles/types/sort&#45;order.ts</title>
<g id="a_node17"><a xlink:href="articles/types/sort-order.ts" xlink:title="no&#45;orphans">
<path fill="#ccffcc" stroke="orange" d="M140.21,-1751.75C140.21,-1751.75 87.29,-1751.75 87.29,-1751.75 84.33,-1751.75 81.38,-1748.79 81.38,-1745.83 81.38,-1745.83 81.38,-1739.92 81.38,-1739.92 81.38,-1736.96 84.33,-1734 87.29,-1734 87.29,-1734 140.21,-1734 140.21,-1734 143.17,-1734 146.12,-1736.96 146.12,-1739.92 146.12,-1739.92 146.12,-1745.83 146.12,-1745.83 146.12,-1748.79 143.17,-1751.75 140.21,-1751.75"/>
<text xml:space="preserve" text-anchor="start" x="89.38" y="-1739.2" font-family="Helvetica,sans-Serif" font-size="9.00" fill="orange">sort&#45;order.ts</text>
</a>
</g>
</g>
<!-- books/entities/books&#45;entity.ts -->
<g id="node18" class="node">
<title>books/entities/books&#45;entity.ts</title>
<g id="a_node18"><a xlink:href="books/entities/books-entity.ts" xlink:title="books&#45;entity.ts">
<path fill="#ddfeff" stroke="black" d="M297.96,-1262.75C297.96,-1262.75 235.29,-1262.75 235.29,-1262.75 232.33,-1262.75 229.38,-1259.79 229.38,-1256.83 229.38,-1256.83 229.38,-1250.92 229.38,-1250.92 229.38,-1247.96 232.33,-1245 235.29,-1245 235.29,-1245 297.96,-1245 297.96,-1245 300.92,-1245 303.88,-1247.96 303.88,-1250.92 303.88,-1250.92 303.88,-1256.83 303.88,-1256.83 303.88,-1259.79 300.92,-1262.75 297.96,-1262.75"/>
<text xml:space="preserve" text-anchor="start" x="237.38" y="-1250.2" font-family="Helvetica,sans-Serif" font-size="9.00">books&#45;entity.ts</text>
</a>
</g>
</g>
<!-- books/entities/books&#45;entity.ts&#45;&gt;common/entities/common&#45;entity.ts -->
<g id="edge9" class="edge">
<title>books/entities/books&#45;entity.ts&#45;&gt;common/entities/common&#45;entity.ts</title>
<path fill="none" stroke="#000000" stroke-width="2" stroke-opacity="0.200000" d="M303.45,-1244.59C320.23,-1240.24 340.39,-1235.01 358.14,-1230.41"/>
<polygon fill="#000000" fill-opacity="0.200000" stroke="#000000" stroke-width="2" stroke-opacity="0.200000" points="358.42,-1232.5 363.7,-1228.97 357.37,-1228.44 358.42,-1232.5"/>
</g>
<!-- books/entities/books&#45;entity.ts&#45;&gt;common/services/entity&#45;factory.ts -->
<g id="edge10" class="edge">
<title>books/entities/books&#45;entity.ts&#45;&gt;common/services/entity&#45;factory.ts</title>
<path fill="none" stroke="#000000" stroke-width="2" stroke-opacity="0.200000" d="M272.92,-1262.95C282.04,-1277.57 302.27,-1305.82 328.25,-1316.88 383.36,-1340.32 408,-1340.58 463,-1316.88 487.1,-1306.49 506.37,-1282.13 517.31,-1265.57"/>
<polygon fill="#000000" fill-opacity="0.200000" stroke="#000000" stroke-width="2" stroke-opacity="0.200000" points="518.94,-1266.91 520.38,-1260.72 515.39,-1264.67 518.94,-1266.91"/>
</g>
<!-- books/entities/books&#45;entity.ts&#45;&gt;node_modules/.pnpm -->
<g id="edge11" class="edge">
<title>books/entities/books&#45;entity.ts&#45;&gt;node_modules/.pnpm</title>
<path fill="none" stroke="#000000" stroke-opacity="0.200000" d="M271.06,-1262.98C278.38,-1280.89 297.42,-1320.33 328.25,-1335.88 435.24,-1389.83 514.11,-1395.88 596.5,-1308.88 637.78,-1265.28 642.13,-1068.77 642.49,-1010.32"/>
<polygon fill="#000000" fill-opacity="0.200000" stroke="#000000" stroke-opacity="0.200000" points="644.59,-1010.54 642.52,-1004.53 640.39,-1010.53 644.59,-1010.54"/>
</g>
<!-- books/events/book&#45;created&#45;event.ts -->
<g id="node19" class="node">
<title>books/events/book&#45;created&#45;event.ts</title>
<g id="a_node19"><a xlink:href="books/events/book-created-event.ts" xlink:title="book&#45;created&#45;event.ts">
<path fill="#ddfeff" stroke="black" d="M160.08,-967.75C160.08,-967.75 67.42,-967.75 67.42,-967.75 64.46,-967.75 61.5,-964.79 61.5,-961.83 61.5,-961.83 61.5,-955.92 61.5,-955.92 61.5,-952.96 64.46,-950 67.42,-950 67.42,-950 160.08,-950 160.08,-950 163.04,-950 166,-952.96 166,-955.92 166,-955.92 166,-961.83 166,-961.83 166,-964.79 163.04,-967.75 160.08,-967.75"/>
<text xml:space="preserve" text-anchor="start" x="69.5" y="-955.2" font-family="Helvetica,sans-Serif" font-size="9.00">book&#45;created&#45;event.ts</text>
</a>
</g>
</g>
<!-- books/events/book&#45;created&#45;event.ts&#45;&gt;common/events/base&#45;domain&#45;event.ts -->
<g id="edge12" class="edge">
<title>books/events/book&#45;created&#45;event.ts&#45;&gt;common/events/base&#45;domain&#45;event.ts</title>
<path fill="none" stroke="#000000" stroke-width="2" stroke-opacity="0.200000" d="M166.38,-954.96C238.21,-951.99 369.92,-955.72 463,-1011.88 490.31,-1028.35 509.66,-1061.27 519.6,-1081.55"/>
<polygon fill="#000000" fill-opacity="0.200000" stroke="#000000" stroke-width="2" stroke-opacity="0.200000" points="517.65,-1082.35 522.1,-1086.89 521.46,-1080.57 517.65,-1082.35"/>
</g>
<!-- books/events/book&#45;deleted&#45;event.ts -->
<g id="node20" class="node">
<title>books/events/book&#45;deleted&#45;event.ts</title>
<g id="a_node20"><a xlink:href="books/events/book-deleted-event.ts" xlink:title="book&#45;deleted&#45;event.ts">
<path fill="#ddfeff" stroke="black" d="M160.08,-1027.75C160.08,-1027.75 67.42,-1027.75 67.42,-1027.75 64.46,-1027.75 61.5,-1024.79 61.5,-1021.83 61.5,-1021.83 61.5,-1015.92 61.5,-1015.92 61.5,-1012.96 64.46,-1010 67.42,-1010 67.42,-1010 160.08,-1010 160.08,-1010 163.04,-1010 166,-1012.96 166,-1015.92 166,-1015.92 166,-1021.83 166,-1021.83 166,-1024.79 163.04,-1027.75 160.08,-1027.75"/>
<text xml:space="preserve" text-anchor="start" x="69.5" y="-1015.2" font-family="Helvetica,sans-Serif" font-size="9.00">book&#45;deleted&#45;event.ts</text>
</a>
</g>
</g>
<!-- books/events/book&#45;deleted&#45;event.ts&#45;&gt;common/events/base&#45;domain&#45;event.ts -->
<g id="edge13" class="edge">
<title>books/events/book&#45;deleted&#45;event.ts&#45;&gt;common/events/base&#45;domain&#45;event.ts</title>
<path fill="none" stroke="#000000" stroke-width="2" stroke-opacity="0.200000" d="M166.23,-1027.74C234.31,-1039.63 357.97,-1061.82 463,-1083.88 468.44,-1085.02 474.13,-1086.27 479.78,-1087.54"/>
<polygon fill="#000000" fill-opacity="0.200000" stroke="#000000" stroke-width="2" stroke-opacity="0.200000" points="479.31,-1089.59 485.63,-1088.88 480.25,-1085.49 479.31,-1089.59"/>
</g>
<!-- books/events/book&#45;updated&#45;event.ts -->
<g id="node21" class="node">
<title>books/events/book&#45;updated&#45;event.ts</title>
<g id="a_node21"><a xlink:href="books/events/book-updated-event.ts" xlink:title="book&#45;updated&#45;event.ts">
<path fill="#ddfeff" stroke="black" d="M161.58,-997.75C161.58,-997.75 65.92,-997.75 65.92,-997.75 62.96,-997.75 60,-994.79 60,-991.83 60,-991.83 60,-985.92 60,-985.92 60,-982.96 62.96,-980 65.92,-980 65.92,-980 161.58,-980 161.58,-980 164.54,-980 167.5,-982.96 167.5,-985.92 167.5,-985.92 167.5,-991.83 167.5,-991.83 167.5,-994.79 164.54,-997.75 161.58,-997.75"/>
<text xml:space="preserve" text-anchor="start" x="68" y="-985.2" font-family="Helvetica,sans-Serif" font-size="9.00">book&#45;updated&#45;event.ts</text>
</a>
</g>
</g>
<!-- books/events/book&#45;updated&#45;event.ts&#45;&gt;common/events/base&#45;domain&#45;event.ts -->
<g id="edge14" class="edge">
<title>books/events/book&#45;updated&#45;event.ts&#45;&gt;common/events/base&#45;domain&#45;event.ts</title>
<path fill="none" stroke="#000000" stroke-width="2" stroke-opacity="0.200000" d="M167.79,-991.94C237.86,-997.52 363.97,-1012.97 463,-1054.88 480.12,-1062.12 497.38,-1074.27 509.69,-1083.97"/>
<polygon fill="#000000" fill-opacity="0.200000" stroke="#000000" stroke-width="2" stroke-opacity="0.200000" points="508.34,-1085.58 514.32,-1087.72 510.98,-1082.31 508.34,-1085.58"/>
</g>
<!-- books/repositories/books&#45;command&#45;repository.interface.ts -->
<g id="node22" class="node">
<title>books/repositories/books&#45;command&#45;repository.interface.ts</title>
<g id="a_node22"><a xlink:href="books/repositories/books-command-repository.interface.ts" xlink:title="no&#45;orphans">
<path fill="#ccffcc" stroke="orange" d="M194.96,-1087.75C194.96,-1087.75 32.54,-1087.75 32.54,-1087.75 29.58,-1087.75 26.62,-1084.79 26.62,-1081.83 26.62,-1081.83 26.62,-1075.92 26.62,-1075.92 26.62,-1072.96 29.58,-1070 32.54,-1070 32.54,-1070 194.96,-1070 194.96,-1070 197.92,-1070 200.88,-1072.96 200.88,-1075.92 200.88,-1075.92 200.88,-1081.83 200.88,-1081.83 200.88,-1084.79 197.92,-1087.75 194.96,-1087.75"/>
<text xml:space="preserve" text-anchor="start" x="34.62" y="-1075.2" font-family="Helvetica,sans-Serif" font-size="9.00" fill="orange">books&#45;command&#45;repository.interface.ts</text>
</a>
</g>
</g>
<!-- books/repositories/books&#45;query&#45;repository.interface.ts -->
<g id="node23" class="node">
<title>books/repositories/books&#45;query&#45;repository.interface.ts</title>
<g id="a_node23"><a xlink:href="books/repositories/books-query-repository.interface.ts" xlink:title="no&#45;orphans">
<path fill="#ccffcc" stroke="orange" d="M186.33,-1117.75C186.33,-1117.75 41.17,-1117.75 41.17,-1117.75 38.21,-1117.75 35.25,-1114.79 35.25,-1111.83 35.25,-1111.83 35.25,-1105.92 35.25,-1105.92 35.25,-1102.96 38.21,-1100 41.17,-1100 41.17,-1100 186.33,-1100 186.33,-1100 189.29,-1100 192.25,-1102.96 192.25,-1105.92 192.25,-1105.92 192.25,-1111.83 192.25,-1111.83 192.25,-1114.79 189.29,-1117.75 186.33,-1117.75"/>
<text xml:space="preserve" text-anchor="start" x="43.25" y="-1105.2" font-family="Helvetica,sans-Serif" font-size="9.00" fill="orange">books&#45;query&#45;repository.interface.ts</text>
</a>
</g>
</g>
<!-- books/services/books&#45;domain&#45;service.ts -->
<g id="node24" class="node">
<title>books/services/books&#45;domain&#45;service.ts</title>
<g id="a_node24"><a xlink:href="books/services/books-domain-service.ts" xlink:title="books&#45;domain&#45;service.ts">
<path fill="#ddfeff" stroke="black" d="M165.71,-1177.75C165.71,-1177.75 61.79,-1177.75 61.79,-1177.75 58.83,-1177.75 55.88,-1174.79 55.88,-1171.83 55.88,-1171.83 55.88,-1165.92 55.88,-1165.92 55.88,-1162.96 58.83,-1160 61.79,-1160 61.79,-1160 165.71,-1160 165.71,-1160 168.67,-1160 171.62,-1162.96 171.62,-1165.92 171.62,-1165.92 171.62,-1171.83 171.62,-1171.83 171.62,-1174.79 168.67,-1177.75 165.71,-1177.75"/>
<text xml:space="preserve" text-anchor="start" x="63.88" y="-1165.2" font-family="Helvetica,sans-Serif" font-size="9.00">books&#45;domain&#45;service.ts</text>
</a>
</g>
</g>
<!-- books/services/books&#45;domain&#45;service.ts&#45;&gt;errors/error&#45;classes.ts -->
<g id="edge15" class="edge">
<title>books/services/books&#45;domain&#45;service.ts&#45;&gt;errors/error&#45;classes.ts</title>
<path fill="none" stroke="#000000" stroke-width="2" stroke-opacity="0.200000" d="M172.08,-1166.67C186.61,-1163.44 201.04,-1157.49 211.5,-1146.88 245.04,-1112.82 260.01,-961.77 264.28,-909.08"/>
<polygon fill="#000000" fill-opacity="0.200000" stroke="#000000" stroke-width="2" stroke-opacity="0.200000" points="266.37,-909.34 264.74,-903.19 262.18,-909.01 266.37,-909.34"/>
</g>
<!-- books/services/books&#45;domain&#45;service.ts&#45;&gt;books/entities/books&#45;entity.ts -->
<g id="edge16" class="edge">
<title>books/services/books&#45;domain&#45;service.ts&#45;&gt;books/entities/books&#45;entity.ts</title>
<path fill="none" stroke="#000000" stroke-width="2" stroke-opacity="0.200000" d="M143.35,-1178.13C163.2,-1185.15 189.87,-1195.82 211.5,-1208.88 225.44,-1217.29 239.53,-1229.13 249.84,-1238.56"/>
<polygon fill="#000000" fill-opacity="0.200000" stroke="#000000" stroke-width="2" stroke-opacity="0.200000" points="248.3,-1239.99 254.12,-1242.56 251.17,-1236.93 248.3,-1239.99"/>
</g>
<!-- books/types/cache&#45;strategy.ts -->
<g id="node25" class="node">
<title>books/types/cache&#45;strategy.ts</title>
<g id="a_node25"><a xlink:href="books/types/cache-strategy.ts" xlink:title="no&#45;orphans">
<path fill="#ccffcc" stroke="orange" d="M150.33,-1237.75C150.33,-1237.75 77.17,-1237.75 77.17,-1237.75 74.21,-1237.75 71.25,-1234.79 71.25,-1231.83 71.25,-1231.83 71.25,-1225.92 71.25,-1225.92 71.25,-1222.96 74.21,-1220 77.17,-1220 77.17,-1220 150.33,-1220 150.33,-1220 153.29,-1220 156.25,-1222.96 156.25,-1225.92 156.25,-1225.92 156.25,-1231.83 156.25,-1231.83 156.25,-1234.79 153.29,-1237.75 150.33,-1237.75"/>
<text xml:space="preserve" text-anchor="start" x="79.25" y="-1225.2" font-family="Helvetica,sans-Serif" font-size="9.00" fill="orange">cache&#45;strategy.ts</text>
</a>
</g>
</g>
<!-- books/types/query&#45;params.ts -->
<g id="node26" class="node">
<title>books/types/query&#45;params.ts</title>
<g id="a_node26"><a xlink:href="books/types/query-params.ts" xlink:title="no&#45;orphans">
<path fill="#ccffcc" stroke="orange" d="M148.83,-1267.75C148.83,-1267.75 78.67,-1267.75 78.67,-1267.75 75.71,-1267.75 72.75,-1264.79 72.75,-1261.83 72.75,-1261.83 72.75,-1255.92 72.75,-1255.92 72.75,-1252.96 75.71,-1250 78.67,-1250 78.67,-1250 148.83,-1250 148.83,-1250 151.79,-1250 154.75,-1252.96 154.75,-1255.92 154.75,-1255.92 154.75,-1261.83 154.75,-1261.83 154.75,-1264.79 151.79,-1267.75 148.83,-1267.75"/>
<text xml:space="preserve" text-anchor="start" x="80.75" y="-1255.2" font-family="Helvetica,sans-Serif" font-size="9.00" fill="orange">query&#45;params.ts</text>
</a>
</g>
</g>
<!-- books/types/sort&#45;order.ts -->
<g id="node27" class="node">
<title>books/types/sort&#45;order.ts</title>
<g id="a_node27"><a xlink:href="books/types/sort-order.ts" xlink:title="no&#45;orphans">
<path fill="#ccffcc" stroke="orange" d="M140.21,-1297.75C140.21,-1297.75 87.29,-1297.75 87.29,-1297.75 84.33,-1297.75 81.38,-1294.79 81.38,-1291.83 81.38,-1291.83 81.38,-1285.92 81.38,-1285.92 81.38,-1282.96 84.33,-1280 87.29,-1280 87.29,-1280 140.21,-1280 140.21,-1280 143.17,-1280 146.12,-1282.96 146.12,-1285.92 146.12,-1285.92 146.12,-1291.83 146.12,-1291.83 146.12,-1294.79 143.17,-1297.75 140.21,-1297.75"/>
<text xml:space="preserve" text-anchor="start" x="89.38" y="-1285.2" font-family="Helvetica,sans-Serif" font-size="9.00" fill="orange">sort&#45;order.ts</text>
</a>
</g>
</g>
<!-- common/services/id&#45;generator.ts&#45;&gt;node_modules/.pnpm -->
<g id="edge21" class="edge">
<title>common/services/id&#45;generator.ts&#45;&gt;node_modules/.pnpm</title>
<path fill="none" stroke="#000000" stroke-opacity="0.200000" d="M566.27,-1213.95C577.36,-1210.76 588.64,-1205.5 596.5,-1196.88 621.65,-1169.27 636.17,-1053.92 640.84,-1010.5"/>
<polygon fill="#000000" fill-opacity="0.200000" stroke="#000000" stroke-opacity="0.200000" points="642.92,-1010.74 641.46,-1004.55 638.75,-1010.3 642.92,-1010.74"/>
</g>
<!-- common/events/domain&#45;event.interface.ts -->
<g id="node29" class="node">
<title>common/events/domain&#45;event.interface.ts</title>
<g id="a_node29"><a xlink:href="common/events/domain-event.interface.ts" xlink:title="no&#45;orphans">
<path fill="#ccffcc" stroke="orange" d="M457.08,-1107.75C457.08,-1107.75 350.17,-1107.75 350.17,-1107.75 347.21,-1107.75 344.25,-1104.79 344.25,-1101.83 344.25,-1101.83 344.25,-1095.92 344.25,-1095.92 344.25,-1092.96 347.21,-1090 350.17,-1090 350.17,-1090 457.08,-1090 457.08,-1090 460.04,-1090 463,-1092.96 463,-1095.92 463,-1095.92 463,-1101.83 463,-1101.83 463,-1104.79 460.04,-1107.75 457.08,-1107.75"/>
<text xml:space="preserve" text-anchor="start" x="352.25" y="-1095.2" font-family="Helvetica,sans-Serif" font-size="9.00" fill="orange">domain&#45;event.interface.ts</text>
</a>
</g>
</g>
<!-- common/events/system&#45;error&#45;event.ts -->
<g id="node30" class="node">
<title>common/events/system&#45;error&#45;event.ts</title>
<g id="a_node30"><a xlink:href="common/events/system-error-event.ts" xlink:title="system&#45;error&#45;event.ts">
<path fill="#ddfeff" stroke="black" d="M448.46,-1137.75C448.46,-1137.75 358.79,-1137.75 358.79,-1137.75 355.83,-1137.75 352.88,-1134.79 352.88,-1131.83 352.88,-1131.83 352.88,-1125.92 352.88,-1125.92 352.88,-1122.96 355.83,-1120 358.79,-1120 358.79,-1120 448.46,-1120 448.46,-1120 451.42,-1120 454.38,-1122.96 454.38,-1125.92 454.38,-1125.92 454.38,-1131.83 454.38,-1131.83 454.38,-1134.79 451.42,-1137.75 448.46,-1137.75"/>
<text xml:space="preserve" text-anchor="start" x="360.88" y="-1125.2" font-family="Helvetica,sans-Serif" font-size="9.00">system&#45;error&#45;event.ts</text>
</a>
</g>
</g>
<!-- common/events/system&#45;error&#45;event.ts&#45;&gt;common/events/base&#45;domain&#45;event.ts -->
<g id="edge19" class="edge">
<title>common/events/system&#45;error&#45;event.ts&#45;&gt;common/events/base&#45;domain&#45;event.ts</title>
<path fill="none" stroke="#000000" stroke-width="2" stroke-opacity="0.200000" d="M442.75,-1119.55C454.75,-1116.61 468.13,-1113.34 480.65,-1110.28"/>
<polygon fill="#000000" fill-opacity="0.200000" stroke="#000000" stroke-width="2" stroke-opacity="0.200000" points="480.88,-1112.38 486.21,-1108.92 479.88,-1108.3 480.88,-1112.38"/>
</g>
<!-- common/events/system&#45;warning&#45;event.ts -->
<g id="node31" class="node">
<title>common/events/system&#45;warning&#45;event.ts</title>
<g id="a_node31"><a xlink:href="common/events/system-warning-event.ts" xlink:title="system&#45;warning&#45;event.ts">
<path fill="#ddfeff" stroke="black" d="M455.21,-1167.75C455.21,-1167.75 352.04,-1167.75 352.04,-1167.75 349.08,-1167.75 346.12,-1164.79 346.12,-1161.83 346.12,-1161.83 346.12,-1155.92 346.12,-1155.92 346.12,-1152.96 349.08,-1150 352.04,-1150 352.04,-1150 455.21,-1150 455.21,-1150 458.17,-1150 461.12,-1152.96 461.12,-1155.92 461.12,-1155.92 461.12,-1161.83 461.12,-1161.83 461.12,-1164.79 458.17,-1167.75 455.21,-1167.75"/>
<text xml:space="preserve" text-anchor="start" x="354.12" y="-1155.2" font-family="Helvetica,sans-Serif" font-size="9.00">system&#45;warning&#45;event.ts</text>
</a>
</g>
</g>
<!-- common/events/system&#45;warning&#45;event.ts&#45;&gt;common/events/base&#45;domain&#45;event.ts -->
<g id="edge20" class="edge">
<title>common/events/system&#45;warning&#45;event.ts&#45;&gt;common/events/base&#45;domain&#45;event.ts</title>
<path fill="none" stroke="#000000" stroke-width="2" stroke-opacity="0.200000" d="M448.27,-1149.52C453.33,-1147.89 458.34,-1146.02 463,-1143.88 480.17,-1135.98 497.6,-1123.42 509.97,-1113.57"/>
<polygon fill="#000000" fill-opacity="0.200000" stroke="#000000" stroke-width="2" stroke-opacity="0.200000" points="510.96,-1115.48 514.28,-1110.06 508.3,-1112.22 510.96,-1115.48"/>
</g>
<!-- common/types/search&#45;types.ts -->
<g id="node32" class="node">
<title>common/types/search&#45;types.ts</title>
<g id="a_node32"><a xlink:href="common/types/search-types.ts" xlink:title="no&#45;orphans">
<path fill="#ccffcc" stroke="orange" d="M436.46,-1287.75C436.46,-1287.75 370.79,-1287.75 370.79,-1287.75 367.83,-1287.75 364.88,-1284.79 364.88,-1281.83 364.88,-1281.83 364.88,-1275.92 364.88,-1275.92 364.88,-1272.96 367.83,-1270 370.79,-1270 370.79,-1270 436.46,-1270 436.46,-1270 439.42,-1270 442.38,-1272.96 442.38,-1275.92 442.38,-1275.92 442.38,-1281.83 442.38,-1281.83 442.38,-1284.79 439.42,-1287.75 436.46,-1287.75"/>
<text xml:space="preserve" text-anchor="start" x="372.88" y="-1275.2" font-family="Helvetica,sans-Serif" font-size="9.00" fill="orange">search&#45;types.ts</text>
</a>
</g>
</g>
<!-- images/entities/image&#45;entity.ts -->
<g id="node33" class="node">
<title>images/entities/image&#45;entity.ts</title>
<g id="a_node33"><a xlink:href="images/entities/image-entity.ts" xlink:title="image&#45;entity.ts">
<path fill="#ddfeff" stroke="black" d="M298.33,-765.75C298.33,-765.75 234.92,-765.75 234.92,-765.75 231.96,-765.75 229,-762.79 229,-759.83 229,-759.83 229,-753.92 229,-753.92 229,-750.96 231.96,-748 234.92,-748 234.92,-748 298.33,-748 298.33,-748 301.29,-748 304.25,-750.96 304.25,-753.92 304.25,-753.92 304.25,-759.83 304.25,-759.83 304.25,-762.79 301.29,-765.75 298.33,-765.75"/>
<text xml:space="preserve" text-anchor="start" x="237" y="-753.2" font-family="Helvetica,sans-Serif" font-size="9.00">image&#45;entity.ts</text>
</a>
</g>
</g>
<!-- images/entities/image&#45;entity.ts&#45;&gt;common/entities/common&#45;entity.ts -->
<g id="edge22" class="edge">
<title>images/entities/image&#45;entity.ts&#45;&gt;common/entities/common&#45;entity.ts</title>
<path fill="none" stroke="#000000" stroke-width="2" stroke-opacity="0.200000" d="M273.52,-766.16C285.13,-785 310.62,-829.47 320.25,-870.88 324.35,-888.52 317.23,-1182.5 328.25,-1196.88 334.33,-1204.81 343.14,-1209.99 352.59,-1213.35"/>
<polygon fill="#000000" fill-opacity="0.200000" stroke="#000000" stroke-width="2" stroke-opacity="0.200000" points="351.75,-1215.29 358.1,-1215 352.95,-1211.27 351.75,-1215.29"/>
</g>
<!-- images/entities/image&#45;entity.ts&#45;&gt;common/services/entity&#45;factory.ts -->
<g id="edge23" class="edge">
<title>images/entities/image&#45;entity.ts&#45;&gt;common/services/entity&#45;factory.ts</title>
<path fill="none" stroke="#000000" stroke-width="2" stroke-opacity="0.200000" d="M273.43,-766.18C284.87,-785.06 310.08,-829.6 320.25,-870.88 324.45,-887.94 317.85,-1014.7 328.25,-1028.88 366.04,-1080.38 424.36,-1028.01 463,-1078.88 483.91,-1106.4 454.13,-1207.1 476,-1233.88 477.68,-1235.93 479.62,-1237.71 481.74,-1239.25"/>
<polygon fill="#000000" fill-opacity="0.200000" stroke="#000000" stroke-width="2" stroke-opacity="0.200000" points="480.67,-1241.06 486.93,-1242.17 482.73,-1237.4 480.67,-1241.06"/>
</g>
<!-- images/entities/image&#45;entity.ts&#45;&gt;node_modules/.pnpm -->
<g id="edge25" class="edge">
<title>images/entities/image&#45;entity.ts&#45;&gt;node_modules/.pnpm</title>
<path fill="none" stroke="#000000" stroke-opacity="0.200000" d="M304.56,-757.7C345.72,-760.09 413.03,-768.47 463,-796.88 544.79,-843.37 609.9,-940.3 633.22,-978.2"/>
<polygon fill="#000000" fill-opacity="0.200000" stroke="#000000" stroke-opacity="0.200000" points="631.39,-979.23 636.3,-983.27 634.98,-977.05 631.39,-979.23"/>
</g>
<!-- images/entities/image&#45;entity.ts&#45;&gt;common/services/id&#45;generator.ts -->
<g id="edge24" class="edge">
<title>images/entities/image&#45;entity.ts&#45;&gt;common/services/id&#45;generator.ts</title>
<path fill="none" stroke="#000000" stroke-width="2" stroke-opacity="0.200000" d="M276.82,-765.88C309.38,-798.44 419.55,-914.47 463,-1034.88 475.26,-1068.85 454.94,-1167.54 476,-1196.88 478.22,-1199.97 480.98,-1202.64 484.04,-1204.93"/>
<polygon fill="#000000" fill-opacity="0.200000" stroke="#000000" stroke-width="2" stroke-opacity="0.200000" points="482.88,-1206.68 489.08,-1208.04 485.08,-1203.1 482.88,-1206.68"/>
</g>
<!-- images/events/image&#45;created&#45;event.ts -->
<g id="node34" class="node">
<title>images/events/image&#45;created&#45;event.ts</title>
<g id="a_node34"><a xlink:href="images/events/image-created-event.ts" xlink:title="image&#45;created&#45;event.ts">
<path fill="#ddfeff" stroke="black" d="M162.71,-513.75C162.71,-513.75 64.79,-513.75 64.79,-513.75 61.83,-513.75 58.88,-510.79 58.88,-507.83 58.88,-507.83 58.88,-501.92 58.88,-501.92 58.88,-498.96 61.83,-496 64.79,-496 64.79,-496 162.71,-496 162.71,-496 165.67,-496 168.62,-498.96 168.62,-501.92 168.62,-501.92 168.62,-507.83 168.62,-507.83 168.62,-510.79 165.67,-513.75 162.71,-513.75"/>
<text xml:space="preserve" text-anchor="start" x="66.88" y="-501.2" font-family="Helvetica,sans-Serif" font-size="9.00">image&#45;created&#45;event.ts</text>
</a>
</g>
</g>
<!-- images/events/image&#45;created&#45;event.ts&#45;&gt;common/events/base&#45;domain&#45;event.ts -->
<g id="edge26" class="edge">
<title>images/events/image&#45;created&#45;event.ts&#45;&gt;common/events/base&#45;domain&#45;event.ts</title>
<path fill="none" stroke="#000000" stroke-width="2" stroke-opacity="0.200000" d="M169.01,-500.86C184.92,-502.62 200.88,-507.82 211.5,-519.88 233.32,-544.65 198.54,-791.37 219.5,-816.88 237.11,-838.31 442.87,-852.8 463,-871.88 523.27,-929 528.38,-1038.02 527.89,-1080.91"/>
<polygon fill="#000000" fill-opacity="0.200000" stroke="#000000" stroke-width="2" stroke-opacity="0.200000" points="525.79,-1080.82 527.76,-1086.86 529.99,-1080.91 525.79,-1080.82"/>
</g>
<!-- images/events/image&#45;deleted&#45;event.ts -->
<g id="node35" class="node">
<title>images/events/image&#45;deleted&#45;event.ts</title>
<g id="a_node35"><a xlink:href="images/events/image-deleted-event.ts" xlink:title="image&#45;deleted&#45;event.ts">
<path fill="#ddfeff" stroke="black" d="M162.71,-483.75C162.71,-483.75 64.79,-483.75 64.79,-483.75 61.83,-483.75 58.88,-480.79 58.88,-477.83 58.88,-477.83 58.88,-471.92 58.88,-471.92 58.88,-468.96 61.83,-466 64.79,-466 64.79,-466 162.71,-466 162.71,-466 165.67,-466 168.62,-468.96 168.62,-471.92 168.62,-471.92 168.62,-477.83 168.62,-477.83 168.62,-480.79 165.67,-483.75 162.71,-483.75"/>
<text xml:space="preserve" text-anchor="start" x="66.88" y="-471.2" font-family="Helvetica,sans-Serif" font-size="9.00">image&#45;deleted&#45;event.ts</text>
</a>
</g>
</g>
<!-- images/events/image&#45;deleted&#45;event.ts&#45;&gt;common/events/base&#45;domain&#45;event.ts -->
<g id="edge27" class="edge">
<title>images/events/image&#45;deleted&#45;event.ts&#45;&gt;common/events/base&#45;domain&#45;event.ts</title>
<path fill="none" stroke="#000000" stroke-width="2" stroke-opacity="0.200000" d="M169.01,-470.85C184.93,-472.62 200.89,-477.82 211.5,-489.88 233.89,-515.33 197.53,-769.06 219.5,-794.88 237.35,-815.84 442.98,-821.97 463,-840.88 471.98,-849.36 510.88,-1024.13 523.37,-1081.1"/>
<polygon fill="#000000" fill-opacity="0.200000" stroke="#000000" stroke-width="2" stroke-opacity="0.200000" points="521.29,-1081.37 524.62,-1086.79 525.39,-1080.48 521.29,-1081.37"/>
</g>
<!-- images/events/image&#45;updated&#45;event.ts -->
<g id="node36" class="node">
<title>images/events/image&#45;updated&#45;event.ts</title>
<g id="a_node36"><a xlink:href="images/events/image-updated-event.ts" xlink:title="image&#45;updated&#45;event.ts">
<path fill="#ddfeff" stroke="black" d="M164.21,-543.75C164.21,-543.75 63.29,-543.75 63.29,-543.75 60.33,-543.75 57.38,-540.79 57.38,-537.83 57.38,-537.83 57.38,-531.92 57.38,-531.92 57.38,-528.96 60.33,-526 63.29,-526 63.29,-526 164.21,-526 164.21,-526 167.17,-526 170.12,-528.96 170.12,-531.92 170.12,-531.92 170.12,-537.83 170.12,-537.83 170.12,-540.79 167.17,-543.75 164.21,-543.75"/>
<text xml:space="preserve" text-anchor="start" x="65.38" y="-531.2" font-family="Helvetica,sans-Serif" font-size="9.00">image&#45;updated&#45;event.ts</text>
</a>
</g>
</g>
<!-- images/events/image&#45;updated&#45;event.ts&#45;&gt;common/events/base&#45;domain&#45;event.ts -->
<g id="edge28" class="edge">
<title>images/events/image&#45;updated&#45;event.ts&#45;&gt;common/events/base&#45;domain&#45;event.ts</title>
<path fill="none" stroke="#000000" stroke-width="2" stroke-opacity="0.200000" d="M165.97,-544.24C183.3,-550.08 200.91,-559.54 211.5,-574.88 228.43,-599.39 201.12,-819.43 219.5,-842.88 248.17,-879.45 277.8,-851.95 320.25,-870.88 388.97,-901.51 413.34,-905.35 463,-961.88 494.94,-998.22 514.18,-1053.18 522.46,-1081.16"/>
<polygon fill="#000000" fill-opacity="0.200000" stroke="#000000" stroke-width="2" stroke-opacity="0.200000" points="520.35,-1081.44 524.02,-1086.64 524.39,-1080.29 520.35,-1081.44"/>
</g>
<!-- images/repositories/images&#45;command&#45;repository.interface.ts -->
<g id="node37" class="node">
<title>images/repositories/images&#45;command&#45;repository.interface.ts</title>
<g id="a_node37"><a xlink:href="images/repositories/images-command-repository.interface.ts" xlink:title="no&#45;orphans">
<path fill="#ccffcc" stroke="orange" d="M197.58,-603.75C197.58,-603.75 29.92,-603.75 29.92,-603.75 26.96,-603.75 24,-600.79 24,-597.83 24,-597.83 24,-591.92 24,-591.92 24,-588.96 26.96,-586 29.92,-586 29.92,-586 197.58,-586 197.58,-586 200.54,-586 203.5,-588.96 203.5,-591.92 203.5,-591.92 203.5,-597.83 203.5,-597.83 203.5,-600.79 200.54,-603.75 197.58,-603.75"/>
<text xml:space="preserve" text-anchor="start" x="32" y="-591.2" font-family="Helvetica,sans-Serif" font-size="9.00" fill="orange">images&#45;command&#45;repository.interface.ts</text>
</a>
</g>
</g>
<!-- images/repositories/images&#45;query&#45;repository.interface.ts -->
<g id="node38" class="node">
<title>images/repositories/images&#45;query&#45;repository.interface.ts</title>
<g id="a_node38"><a xlink:href="images/repositories/images-query-repository.interface.ts" xlink:title="no&#45;orphans">
<path fill="#ccffcc" stroke="orange" d="M188.96,-633.75C188.96,-633.75 38.54,-633.75 38.54,-633.75 35.58,-633.75 32.62,-630.79 32.62,-627.83 32.62,-627.83 32.62,-621.92 32.62,-621.92 32.62,-618.96 35.58,-616 38.54,-616 38.54,-616 188.96,-616 188.96,-616 191.92,-616 194.88,-618.96 194.88,-621.92 194.88,-621.92 194.88,-627.83 194.88,-627.83 194.88,-630.79 191.92,-633.75 188.96,-633.75"/>
<text xml:space="preserve" text-anchor="start" x="40.62" y="-621.2" font-family="Helvetica,sans-Serif" font-size="9.00" fill="orange">images&#45;query&#45;repository.interface.ts</text>
</a>
</g>
</g>
<!-- images/services/images&#45;domain&#45;service.ts -->
<g id="node39" class="node">
<title>images/services/images&#45;domain&#45;service.ts</title>
<g id="a_node39"><a xlink:href="images/services/images-domain-service.ts" xlink:title="images&#45;domain&#45;service.ts">
<path fill="#ddfeff" stroke="black" d="M168.33,-693.75C168.33,-693.75 59.17,-693.75 59.17,-693.75 56.21,-693.75 53.25,-690.79 53.25,-687.83 53.25,-687.83 53.25,-681.92 53.25,-681.92 53.25,-678.96 56.21,-676 59.17,-676 59.17,-676 168.33,-676 168.33,-676 171.29,-676 174.25,-678.96 174.25,-681.92 174.25,-681.92 174.25,-687.83 174.25,-687.83 174.25,-690.79 171.29,-693.75 168.33,-693.75"/>
<text xml:space="preserve" text-anchor="start" x="61.25" y="-681.2" font-family="Helvetica,sans-Serif" font-size="9.00">images&#45;domain&#45;service.ts</text>
</a>
</g>
</g>
<!-- images/services/images&#45;domain&#45;service.ts&#45;&gt;errors/error&#45;classes.ts -->
<g id="edge29" class="edge">
<title>images/services/images&#45;domain&#45;service.ts&#45;&gt;errors/error&#45;classes.ts</title>
<path fill="none" stroke="#000000" stroke-width="2" stroke-opacity="0.200000" d="M165.25,-694.21C182.72,-700.06 200.61,-709.53 211.5,-724.88 230.05,-751.01 201.65,-842.25 219.5,-868.88 221.56,-871.94 224.16,-874.59 227.09,-876.88"/>
<polygon fill="#000000" fill-opacity="0.200000" stroke="#000000" stroke-width="2" stroke-opacity="0.200000" points="225.66,-878.46 231.84,-879.95 227.94,-874.93 225.66,-878.46"/>
</g>
<!-- images/services/images&#45;domain&#45;service.ts&#45;&gt;images/entities/image&#45;entity.ts -->
<g id="edge30" class="edge">
<title>images/services/images&#45;domain&#45;service.ts&#45;&gt;images/entities/image&#45;entity.ts</title>
<path fill="none" stroke="#000000" stroke-width="2" stroke-opacity="0.200000" d="M139.84,-694.12C159.63,-701.68 187.76,-713.02 211.5,-724.88 222.34,-730.28 233.94,-737.01 243.62,-742.9"/>
<polygon fill="#000000" fill-opacity="0.200000" stroke="#000000" stroke-width="2" stroke-opacity="0.200000" points="242.45,-744.65 248.66,-746.02 244.66,-741.08 242.45,-744.65"/>
</g>
<!-- images/types/cache&#45;strategy.ts -->
<g id="node40" class="node">
<title>images/types/cache&#45;strategy.ts</title>
<g id="a_node40"><a xlink:href="images/types/cache-strategy.ts" xlink:title="no&#45;orphans">
<path fill="#ccffcc" stroke="orange" d="M150.33,-753.75C150.33,-753.75 77.17,-753.75 77.17,-753.75 74.21,-753.75 71.25,-750.79 71.25,-747.83 71.25,-747.83 71.25,-741.92 71.25,-741.92 71.25,-738.96 74.21,-736 77.17,-736 77.17,-736 150.33,-736 150.33,-736 153.29,-736 156.25,-738.96 156.25,-741.92 156.25,-741.92 156.25,-747.83 156.25,-747.83 156.25,-750.79 153.29,-753.75 150.33,-753.75"/>
<text xml:space="preserve" text-anchor="start" x="79.25" y="-741.2" font-family="Helvetica,sans-Serif" font-size="9.00" fill="orange">cache&#45;strategy.ts</text>
</a>
</g>
</g>
<!-- images/types/query&#45;params.ts -->
<g id="node41" class="node">
<title>images/types/query&#45;params.ts</title>
<g id="a_node41"><a xlink:href="images/types/query-params.ts" xlink:title="no&#45;orphans">
<path fill="#ccffcc" stroke="orange" d="M148.83,-783.75C148.83,-783.75 78.67,-783.75 78.67,-783.75 75.71,-783.75 72.75,-780.79 72.75,-777.83 72.75,-777.83 72.75,-771.92 72.75,-771.92 72.75,-768.96 75.71,-766 78.67,-766 78.67,-766 148.83,-766 148.83,-766 151.79,-766 154.75,-768.96 154.75,-771.92 154.75,-771.92 154.75,-777.83 154.75,-777.83 154.75,-780.79 151.79,-783.75 148.83,-783.75"/>
<text xml:space="preserve" text-anchor="start" x="80.75" y="-771.2" font-family="Helvetica,sans-Serif" font-size="9.00" fill="orange">query&#45;params.ts</text>
</a>
</g>
</g>
<!-- images/types/sort&#45;order.ts -->
<g id="node42" class="node">
<title>images/types/sort&#45;order.ts</title>
<g id="a_node42"><a xlink:href="images/types/sort-order.ts" xlink:title="no&#45;orphans">
<path fill="#ccffcc" stroke="orange" d="M140.21,-813.75C140.21,-813.75 87.29,-813.75 87.29,-813.75 84.33,-813.75 81.38,-810.79 81.38,-807.83 81.38,-807.83 81.38,-801.92 81.38,-801.92 81.38,-798.96 84.33,-796 87.29,-796 87.29,-796 140.21,-796 140.21,-796 143.17,-796 146.12,-798.96 146.12,-801.92 146.12,-801.92 146.12,-807.83 146.12,-807.83 146.12,-810.79 143.17,-813.75 140.21,-813.75"/>
<text xml:space="preserve" text-anchor="start" x="89.38" y="-801.2" font-family="Helvetica,sans-Serif" font-size="9.00" fill="orange">sort&#45;order.ts</text>
</a>
</g>
</g>
<!-- notes/entities/note&#45;entity.ts -->
<g id="node43" class="node">
<title>notes/entities/note&#45;entity.ts</title>
<g id="a_node43"><a xlink:href="notes/entities/note-entity.ts" xlink:title="note&#45;entity.ts">
<path fill="#ddfeff" stroke="black" d="M294.58,-367.75C294.58,-367.75 238.67,-367.75 238.67,-367.75 235.71,-367.75 232.75,-364.79 232.75,-361.83 232.75,-361.83 232.75,-355.92 232.75,-355.92 232.75,-352.96 235.71,-350 238.67,-350 238.67,-350 294.58,-350 294.58,-350 297.54,-350 300.5,-352.96 300.5,-355.92 300.5,-355.92 300.5,-361.83 300.5,-361.83 300.5,-364.79 297.54,-367.75 294.58,-367.75"/>
<text xml:space="preserve" text-anchor="start" x="240.75" y="-355.2" font-family="Helvetica,sans-Serif" font-size="9.00">note&#45;entity.ts</text>
</a>
</g>
</g>
<!-- notes/entities/note&#45;entity.ts&#45;&gt;common/entities/common&#45;entity.ts -->
<g id="edge31" class="edge">
<title>notes/entities/note&#45;entity.ts&#45;&gt;common/entities/common&#45;entity.ts</title>
<path fill="none" stroke="#000000" stroke-width="2" stroke-opacity="0.200000" d="M269.35,-368.18C277.07,-410.48 308.71,-588.91 320.25,-736.88 321.24,-749.62 320.51,-1186.7 328.25,-1196.88 334.3,-1204.83 343.1,-1210.02 352.54,-1213.39"/>
<polygon fill="#000000" fill-opacity="0.200000" stroke="#000000" stroke-width="2" stroke-opacity="0.200000" points="351.7,-1215.33 358.05,-1215.03 352.9,-1211.3 351.7,-1215.33"/>
</g>
<!-- notes/entities/note&#45;entity.ts&#45;&gt;common/services/entity&#45;factory.ts -->
<g id="edge32" class="edge">
<title>notes/entities/note&#45;entity.ts&#45;&gt;common/services/entity&#45;factory.ts</title>
<path fill="none" stroke="#000000" stroke-width="2" stroke-opacity="0.200000" d="M271.17,-368.15C293.43,-426.8 414.41,-752.61 463,-1029.88 466.92,-1052.25 461.81,-1216.14 476,-1233.88 477.66,-1235.94 479.58,-1237.74 481.7,-1239.29"/>
<polygon fill="#000000" fill-opacity="0.200000" stroke="#000000" stroke-width="2" stroke-opacity="0.200000" points="480.6,-1241.09 486.86,-1242.22 482.67,-1237.43 480.6,-1241.09"/>
</g>
<!-- notes/entities/note&#45;entity.ts&#45;&gt;node_modules/.pnpm -->
<g id="edge33" class="edge">
<title>notes/entities/note&#45;entity.ts&#45;&gt;node_modules/.pnpm</title>
<path fill="none" stroke="#000000" stroke-opacity="0.200000" d="M300.69,-356.25C343.46,-354.74 417.84,-358.75 463,-398.88 555.1,-480.71 625.73,-890.04 639.9,-977.44"/>
<polygon fill="#000000" fill-opacity="0.200000" stroke="#000000" stroke-opacity="0.200000" points="637.79,-977.58 640.82,-983.17 641.94,-976.91 637.79,-977.58"/>
</g>
<!-- notes/events/note&#45;created&#45;event.ts -->
<g id="node44" class="node">
<title>notes/events/note&#45;created&#45;event.ts</title>
<g id="a_node44"><a xlink:href="notes/events/note-created-event.ts" xlink:title="note&#45;created&#45;event.ts">
<path fill="#ddfeff" stroke="black" d="M158.96,-59.75C158.96,-59.75 68.54,-59.75 68.54,-59.75 65.58,-59.75 62.62,-56.79 62.62,-53.83 62.62,-53.83 62.62,-47.92 62.62,-47.92 62.62,-44.96 65.58,-42 68.54,-42 68.54,-42 158.96,-42 158.96,-42 161.92,-42 164.88,-44.96 164.88,-47.92 164.88,-47.92 164.88,-53.83 164.88,-53.83 164.88,-56.79 161.92,-59.75 158.96,-59.75"/>
<text xml:space="preserve" text-anchor="start" x="70.62" y="-47.2" font-family="Helvetica,sans-Serif" font-size="9.00">note&#45;created&#45;event.ts</text>
</a>
</g>
</g>
<!-- notes/events/note&#45;created&#45;event.ts&#45;&gt;common/events/base&#45;domain&#45;event.ts -->
<g id="edge34" class="edge">
<title>notes/events/note&#45;created&#45;event.ts&#45;&gt;common/events/base&#45;domain&#45;event.ts</title>
<path fill="none" stroke="#000000" stroke-width="2" stroke-opacity="0.200000" d="M165.14,-51.1C180.93,-53.09 197.79,-57.35 211.5,-65.88 376.65,-168.52 395.66,-241.46 463,-423.88 509.42,-549.6 524.09,-985.7 526.77,-1080.57"/>
<polygon fill="#000000" fill-opacity="0.200000" stroke="#000000" stroke-width="2" stroke-opacity="0.200000" points="524.67,-1080.58 526.93,-1086.52 528.87,-1080.46 524.67,-1080.58"/>
</g>
<!-- notes/events/note&#45;deleted&#45;event.ts -->
<g id="node45" class="node">
<title>notes/events/note&#45;deleted&#45;event.ts</title>
<g id="a_node45"><a xlink:href="notes/events/note-deleted-event.ts" xlink:title="note&#45;deleted&#45;event.ts">
<path fill="#ddfeff" stroke="black" d="M158.96,-119.75C158.96,-119.75 68.54,-119.75 68.54,-119.75 65.58,-119.75 62.62,-116.79 62.62,-113.83 62.62,-113.83 62.62,-107.92 62.62,-107.92 62.62,-104.96 65.58,-102 68.54,-102 68.54,-102 158.96,-102 158.96,-102 161.92,-102 164.88,-104.96 164.88,-107.92 164.88,-107.92 164.88,-113.83 164.88,-113.83 164.88,-116.79 161.92,-119.75 158.96,-119.75"/>
<text xml:space="preserve" text-anchor="start" x="70.62" y="-107.2" font-family="Helvetica,sans-Serif" font-size="9.00">note&#45;deleted&#45;event.ts</text>
</a>
</g>
</g>
<!-- notes/events/note&#45;deleted&#45;event.ts&#45;&gt;common/events/base&#45;domain&#45;event.ts -->
<g id="edge35" class="edge">
<title>notes/events/note&#45;deleted&#45;event.ts&#45;&gt;common/events/base&#45;domain&#45;event.ts</title>
<path fill="none" stroke="#000000" stroke-width="2" stroke-opacity="0.200000" d="M165.21,-119.98C182.78,-125.8 200.76,-135.32 211.5,-150.88 228.43,-175.39 210.96,-390.33 219.5,-418.88 278.69,-616.82 385.04,-623.54 463,-814.88 502.09,-910.83 519.77,-1035.18 525.27,-1080.95"/>
<polygon fill="#000000" fill-opacity="0.200000" stroke="#000000" stroke-width="2" stroke-opacity="0.200000" points="523.16,-1080.99 525.94,-1086.71 527.33,-1080.51 523.16,-1080.99"/>
</g>
<!-- notes/events/note&#45;updated&#45;event.ts -->
<g id="node46" class="node">
<title>notes/events/note&#45;updated&#45;event.ts</title>
<g id="a_node46"><a xlink:href="notes/events/note-updated-event.ts" xlink:title="note&#45;updated&#45;event.ts">
<path fill="#ddfeff" stroke="black" d="M160.46,-89.75C160.46,-89.75 67.04,-89.75 67.04,-89.75 64.08,-89.75 61.12,-86.79 61.12,-83.83 61.12,-83.83 61.12,-77.92 61.12,-77.92 61.12,-74.96 64.08,-72 67.04,-72 67.04,-72 160.46,-72 160.46,-72 163.42,-72 166.38,-74.96 166.38,-77.92 166.38,-77.92 166.38,-83.83 166.38,-83.83 166.38,-86.79 163.42,-89.75 160.46,-89.75"/>
<text xml:space="preserve" text-anchor="start" x="69.12" y="-77.2" font-family="Helvetica,sans-Serif" font-size="9.00">note&#45;updated&#45;event.ts</text>
</a>
</g>
</g>
<!-- notes/events/note&#45;updated&#45;event.ts&#45;&gt;common/events/base&#45;domain&#45;event.ts -->
<g id="edge36" class="edge">
<title>notes/events/note&#45;updated&#45;event.ts&#45;&gt;common/events/base&#45;domain&#45;event.ts</title>
<path fill="none" stroke="#000000" stroke-width="2" stroke-opacity="0.200000" d="M166.74,-76.63C183.39,-78.14 200.38,-83.24 211.5,-95.88 233.61,-120.99 198.3,-371 219.5,-396.88 248.61,-432.4 281.78,-394.78 320.25,-419.88 409.31,-477.97 423.04,-513.33 463,-611.88 498.73,-699.98 520.96,-1004.03 526.1,-1081.04"/>
<polygon fill="#000000" fill-opacity="0.200000" stroke="#000000" stroke-width="2" stroke-opacity="0.200000" points="523.98,-1080.77 526.47,-1086.62 528.17,-1080.49 523.98,-1080.77"/>
</g>
<!-- notes/repositories/notes&#45;command&#45;repository.interface.ts -->
<g id="node47" class="node">
<title>notes/repositories/notes&#45;command&#45;repository.interface.ts</title>
<g id="a_node47"><a xlink:href="notes/repositories/notes-command-repository.interface.ts" xlink:title="no&#45;orphans">
<path fill="#ccffcc" stroke="orange" d="M193.83,-179.75C193.83,-179.75 33.67,-179.75 33.67,-179.75 30.71,-179.75 27.75,-176.79 27.75,-173.83 27.75,-173.83 27.75,-167.92 27.75,-167.92 27.75,-164.96 30.71,-162 33.67,-162 33.67,-162 193.83,-162 193.83,-162 196.79,-162 199.75,-164.96 199.75,-167.92 199.75,-167.92 199.75,-173.83 199.75,-173.83 199.75,-176.79 196.79,-179.75 193.83,-179.75"/>
<text xml:space="preserve" text-anchor="start" x="35.75" y="-167.2" font-family="Helvetica,sans-Serif" font-size="9.00" fill="orange">notes&#45;command&#45;repository.interface.ts</text>
</a>
</g>
</g>
<!-- notes/repositories/notes&#45;query&#45;repository.interface.ts -->
<g id="node48" class="node">
<title>notes/repositories/notes&#45;query&#45;repository.interface.ts</title>
<g id="a_node48"><a xlink:href="notes/repositories/notes-query-repository.interface.ts" xlink:title="no&#45;orphans">
<path fill="#ccffcc" stroke="orange" d="M185.21,-209.75C185.21,-209.75 42.29,-209.75 42.29,-209.75 39.33,-209.75 36.38,-206.79 36.38,-203.83 36.38,-203.83 36.38,-197.92 36.38,-197.92 36.38,-194.96 39.33,-192 42.29,-192 42.29,-192 185.21,-192 185.21,-192 188.17,-192 191.12,-194.96 191.12,-197.92 191.12,-197.92 191.12,-203.83 191.12,-203.83 191.12,-206.79 188.17,-209.75 185.21,-209.75"/>
<text xml:space="preserve" text-anchor="start" x="44.38" y="-197.2" font-family="Helvetica,sans-Serif" font-size="9.00" fill="orange">notes&#45;query&#45;repository.interface.ts</text>
</a>
</g>
</g>
<!-- notes/services/notes&#45;domain&#45;service.ts -->
<g id="node49" class="node">
<title>notes/services/notes&#45;domain&#45;service.ts</title>
<g id="a_node49"><a xlink:href="notes/services/notes-domain-service.ts" xlink:title="notes&#45;domain&#45;service.ts">
<path fill="#ddfeff" stroke="black" d="M164.58,-269.75C164.58,-269.75 62.92,-269.75 62.92,-269.75 59.96,-269.75 57,-266.79 57,-263.83 57,-263.83 57,-257.92 57,-257.92 57,-254.96 59.96,-252 62.92,-252 62.92,-252 164.58,-252 164.58,-252 167.54,-252 170.5,-254.96 170.5,-257.92 170.5,-257.92 170.5,-263.83 170.5,-263.83 170.5,-266.79 167.54,-269.75 164.58,-269.75"/>
<text xml:space="preserve" text-anchor="start" x="65" y="-257.2" font-family="Helvetica,sans-Serif" font-size="9.00">notes&#45;domain&#45;service.ts</text>
</a>
</g>
</g>
<!-- notes/services/notes&#45;domain&#45;service.ts&#45;&gt;errors/error&#45;classes.ts -->
<g id="edge37" class="edge">
<title>notes/services/notes&#45;domain&#45;service.ts&#45;&gt;errors/error&#45;classes.ts</title>
<path fill="none" stroke="#000000" stroke-width="2" stroke-opacity="0.200000" d="M166.34,-270.24C183.59,-276.08 201.07,-285.55 211.5,-300.88 226.94,-323.57 213.19,-768.16 219.5,-794.88 226.47,-824.37 243.42,-855.45 254.72,-873.99"/>
<polygon fill="#000000" fill-opacity="0.200000" stroke="#000000" stroke-width="2" stroke-opacity="0.200000" points="252.89,-875.03 257.85,-879.01 256.45,-872.81 252.89,-875.03"/>
</g>
<!-- notes/services/notes&#45;domain&#45;service.ts&#45;&gt;notes/entities/note&#45;entity.ts -->
<g id="edge38" class="edge">
<title>notes/services/notes&#45;domain&#45;service.ts&#45;&gt;notes/entities/note&#45;entity.ts</title>
<path fill="none" stroke="#000000" stroke-width="2" stroke-opacity="0.200000" d="M160.71,-270.13C178.97,-276.03 198.64,-285.57 211.5,-300.88 222.04,-313.42 209.29,-324.05 219.5,-336.88 221.99,-340.01 225.04,-342.72 228.36,-345.06"/>
<polygon fill="#000000" fill-opacity="0.200000" stroke="#000000" stroke-width="2" stroke-opacity="0.200000" points="227.16,-346.78 233.39,-348.06 229.31,-343.18 227.16,-346.78"/>
</g>
<!-- notes/types/cache&#45;strategy.ts -->
<g id="node50" class="node">
<title>notes/types/cache&#45;strategy.ts</title>
<g id="a_node50"><a xlink:href="notes/types/cache-strategy.ts" xlink:title="no&#45;orphans">
<path fill="#ccffcc" stroke="orange" d="M150.33,-329.75C150.33,-329.75 77.17,-329.75 77.17,-329.75 74.21,-329.75 71.25,-326.79 71.25,-323.83 71.25,-323.83 71.25,-317.92 71.25,-317.92 71.25,-314.96 74.21,-312 77.17,-312 77.17,-312 150.33,-312 150.33,-312 153.29,-312 156.25,-314.96 156.25,-317.92 156.25,-317.92 156.25,-323.83 156.25,-323.83 156.25,-326.79 153.29,-329.75 150.33,-329.75"/>
<text xml:space="preserve" text-anchor="start" x="79.25" y="-317.2" font-family="Helvetica,sans-Serif" font-size="9.00" fill="orange">cache&#45;strategy.ts</text>
</a>
</g>
</g>
<!-- notes/types/query&#45;params.ts -->
<g id="node51" class="node">
<title>notes/types/query&#45;params.ts</title>
<g id="a_node51"><a xlink:href="notes/types/query-params.ts" xlink:title="no&#45;orphans">
<path fill="#ccffcc" stroke="orange" d="M148.83,-359.75C148.83,-359.75 78.67,-359.75 78.67,-359.75 75.71,-359.75 72.75,-356.79 72.75,-353.83 72.75,-353.83 72.75,-347.92 72.75,-347.92 72.75,-344.96 75.71,-342 78.67,-342 78.67,-342 148.83,-342 148.83,-342 151.79,-342 154.75,-344.96 154.75,-347.92 154.75,-347.92 154.75,-353.83 154.75,-353.83 154.75,-356.79 151.79,-359.75 148.83,-359.75"/>
<text xml:space="preserve" text-anchor="start" x="80.75" y="-347.2" font-family="Helvetica,sans-Serif" font-size="9.00" fill="orange">query&#45;params.ts</text>
</a>
</g>
</g>
<!-- notes/types/sort&#45;order.ts -->
<g id="node52" class="node">
<title>notes/types/sort&#45;order.ts</title>
<g id="a_node52"><a xlink:href="notes/types/sort-order.ts" xlink:title="no&#45;orphans">
<path fill="#ccffcc" stroke="orange" d="M140.21,-389.75C140.21,-389.75 87.29,-389.75 87.29,-389.75 84.33,-389.75 81.38,-386.79 81.38,-383.83 81.38,-383.83 81.38,-377.92 81.38,-377.92 81.38,-374.96 84.33,-372 87.29,-372 87.29,-372 140.21,-372 140.21,-372 143.17,-372 146.12,-374.96 146.12,-377.92 146.12,-377.92 146.12,-383.83 146.12,-383.83 146.12,-386.79 143.17,-389.75 140.21,-389.75"/>
<text xml:space="preserve" text-anchor="start" x="89.38" y="-377.2" font-family="Helvetica,sans-Serif" font-size="9.00" fill="orange">sort&#45;order.ts</text>
</a>
</g>
</g>
<!-- vitest&#45;setup.tsx -->
<g id="node53" class="node">
<title>vitest&#45;setup.tsx</title>
<g id="a_node53"><a xlink:href="vitest-setup.tsx" xlink:title="vitest&#45;setup.tsx">
<path fill="#bbfeff" stroke="black" d="M560.33,-337.75C560.33,-337.75 496.17,-337.75 496.17,-337.75 493.21,-337.75 490.25,-334.79 490.25,-331.83 490.25,-331.83 490.25,-325.92 490.25,-325.92 490.25,-322.96 493.21,-320 496.17,-320 496.17,-320 560.33,-320 560.33,-320 563.29,-320 566.25,-322.96 566.25,-325.92 566.25,-325.92 566.25,-331.83 566.25,-331.83 566.25,-334.79 563.29,-337.75 560.33,-337.75"/>
<text xml:space="preserve" text-anchor="start" x="498.25" y="-325.2" font-family="Helvetica,sans-Serif" font-size="9.00">vitest&#45;setup.tsx</text>
</a>
</g>
</g>
<!-- vitest&#45;setup.tsx&#45;&gt;node_modules/.pnpm -->
<g id="edge39" class="edge">
<title>vitest&#45;setup.tsx&#45;&gt;node_modules/.pnpm</title>
<path fill="none" stroke="#000000" stroke-opacity="0.200000" d="M566.57,-330.69C577.81,-333.16 589.11,-337.93 596.5,-346.88 637.77,-396.87 642.01,-880.48 642.45,-977.12"/>
<polygon fill="#000000" fill-opacity="0.200000" stroke="#000000" stroke-opacity="0.200000" points="640.35,-977.06 642.47,-983.05 644.55,-977.04 640.35,-977.06"/>
</g>
<!-- vitest.config.ts -->
<g id="node54" class="node">
<title>vitest.config.ts</title>
<g id="a_node54"><a xlink:href="vitest.config.ts" xlink:title="vitest.config.ts">
<path fill="#ddfeff" stroke="black" d="M558.83,-307.75C558.83,-307.75 497.67,-307.75 497.67,-307.75 494.71,-307.75 491.75,-304.79 491.75,-301.83 491.75,-301.83 491.75,-295.92 491.75,-295.92 491.75,-292.96 494.71,-290 497.67,-290 497.67,-290 558.83,-290 558.83,-290 561.79,-290 564.75,-292.96 564.75,-295.92 564.75,-295.92 564.75,-301.83 564.75,-301.83 564.75,-304.79 561.79,-307.75 558.83,-307.75"/>
<text xml:space="preserve" text-anchor="start" x="499.75" y="-295.2" font-family="Helvetica,sans-Serif" font-size="9.00">vitest.config.ts</text>
</a>
</g>
</g>
<!-- vitest.config.ts&#45;&gt;node_modules/.pnpm -->
<g id="edge40" class="edge">
<title>vitest.config.ts&#45;&gt;node_modules/.pnpm</title>
<path fill="none" stroke="#000000" stroke-opacity="0.200000" d="M565.05,-298.69C576.74,-300.52 588.71,-304.8 596.5,-313.88 641.01,-365.72 642.65,-877.7 642.54,-977.18"/>
<polygon fill="#000000" fill-opacity="0.200000" stroke="#000000" stroke-opacity="0.200000" points="640.44,-977.05 642.53,-983.06 644.64,-977.06 640.44,-977.05"/>
</g>
</g>
</svg>
